<svg xmlns="http://www.w3.org/2000/svg" width="103" height="111" viewBox="0 0 103 111" fill="none">
<path d="M27.1811 41.6077L28.0001 43H36.6374C46.6483 43 56.2441 39.1563 65.985 36.8467C71.4114 35.5601 77.0879 35.348 82.6888 36.2815L84.0001 36.5L84.0519 36.3576C84.1455 36.1002 84.2177 35.8405 84.2695 35.5805C85.0968 31.424 80.8857 24 76.6478 24C75.4617 24 74.5438 22.9857 73.9982 21.9326C73.2494 20.4875 71.7401 19.5 70.0001 19.5C68.1713 19.5 66.5968 18.3064 65.1886 17.1394C63.1477 15.4481 60.1965 15.0481 57.6969 16.394C57.5741 16.4602 57.4261 16.4593 57.3014 16.3966C53.6875 14.5801 49.2638 15.8215 47.131 19.2873C47.0558 19.4095 46.9021 19.4573 46.7684 19.4054C43.0556 17.9656 38.8617 19.9152 37.5918 23.725C37.5371 23.8892 37.383 23.9988 37.21 24.0064C33.7548 24.1581 31.0001 27.0074 31.0001 30.5C31.0001 31.6754 30.1602 32.6526 29.1694 33.2849C26.4749 35.0047 25.4445 38.6555 27.1811 41.6077Z" fill="white"/>
<path d="M19.5347 59.9415C21.8872 65.1839 21.0178 70.6796 15.7683 73.0352C10.5189 75.3909 6.03613 72.272 3.68367 67.0296C1.33121 61.7873 0.566496 53.2125 5.81598 50.8568C11.0655 48.5011 17.1822 54.6992 19.5347 59.9415Z" fill="white"/>
<path d="M7.14911 52.0001C10.0151 76.7854 30.4125 96.0001 55.1491 96.0001C78.7433 96.0001 100.542 79.1694 102.939 55.4871C103.132 53.5797 101.576 51.9976 99.6591 51.9946C97.7343 51.9916 96.1997 53.5797 96.0774 55.5007C94.7546 76.285 77.5699 92.0001 55.1491 92.0001C31.4819 92.0001 13.0039 75.6779 10.1491 52.0001L7.14911 52.0001Z" fill="white"/>
<path d="M96.2319 46.7663C96.7684 46.7724 97.2 47.209 97.2 47.7454C97.2 48.2819 96.7684 48.7185 96.2319 48.7246L13.9364 49.6598C12.8706 49.6719 12.0001 48.8113 12.0001 47.7454C12.0001 46.6796 12.8706 45.819 13.9364 45.8311L96.2319 46.7663Z" fill="white"/>
<path d="M54.6001 47.7454H97.2C96.4179 43.4168 87.1805 40 75.9001 40C64.6196 40 55.3821 43.4168 54.6001 47.7454Z" fill="white"/>
<path d="M98.4812 102.859C98.9619 102.864 99.3491 103.255 99.3491 103.736C99.3491 104.217 98.9619 104.608 98.4812 104.613L15.885 105.454C14.9292 105.464 14.1491 104.692 14.1491 103.736C14.1491 102.78 14.9292 102.008 15.885 102.018L98.4812 102.859Z" fill="white"/>
<path d="M98.4812 108.067C98.9619 108.072 99.3491 108.463 99.3491 108.944C99.3491 109.425 98.9619 109.816 98.4812 109.821L15.885 110.662C14.9292 110.672 14.1491 109.9 14.1491 108.944C14.1491 107.988 14.9292 107.216 15.885 107.226L98.4812 108.067Z" fill="white"/>
<path d="M23.0765 28.4356L7.2588 21.3368C9.81559 18.0545 13.588 16.5642 17.9121 18.5048C22.2434 20.4486 23.7775 24.3155 23.0765 28.4356Z" fill="white"/>
<path d="M1.45254 37.7639C1.01399 37.5671 0.811198 37.0557 0.993769 36.607L7.2588 21.3368L9.90966 22.5265L2.62182 37.3376C2.40794 37.7723 1.89108 37.9607 1.45254 37.7639Z" fill="white"/>
<path d="M5.96422 39.7887C5.63531 39.6411 5.52247 39.1701 5.70896 38.7231L12.0965 23.5079L14.0845 24.4001L6.92999 39.2711C6.72003 39.7075 6.29313 39.9363 5.96422 39.7887Z" fill="white"/>
<path d="M10.139 41.6623C9.81013 41.5147 9.69729 41.0436 9.88377 40.5967L16.2713 25.3815L18.2593 26.2737L11.1048 41.1447C10.8948 41.5811 10.4679 41.8099 10.139 41.6623Z" fill="white"/>
<path d="M14.585 43.6576C14.1649 43.469 13.9771 42.9644 14.1604 42.516L20.4461 27.2551L23.0968 28.4447L15.7202 43.216C15.507 43.651 15.0052 43.8462 14.585 43.6576Z" fill="white"/>
<path d="M15.0001 22H18.514C26.6599 10.8045 39.7778 4 55.059 4C77.4798 4 94.6645 19.7151 95.9873 40.4994C96.1095 42.4204 97.6441 44.0085 99.569 44.0055C101.486 44.0025 103.042 42.4204 102.849 40.513C100.452 16.8307 78.6532 0 55.059 0C38.3901 0 23.6917 8.72493 15.0001 22Z" fill="white"/>
</svg>