<svg width="138" height="154" viewBox="0 0 138 154" fill="none" xmlns="http://www.w3.org/2000/svg">
<g clip-path="url(#clip0_282_13527)">
<path d="M23.2261 140.44C23.0208 140.44 22.7781 140.468 22.4981 140.524C22.2181 140.561 21.9288 140.589 21.6301 140.608C21.3315 140.608 21.0421 140.589 20.7621 140.552C20.5008 140.515 20.2768 140.412 20.0901 140.244C19.9035 140.076 19.7541 139.88 19.6421 139.656C19.5301 139.432 19.4555 139.208 19.4181 138.984C19.3808 138.741 19.3715 138.508 19.3901 138.284C19.4275 138.06 19.5021 137.873 19.6141 137.724C20.1555 137.817 20.7061 137.883 21.2661 137.92C21.8261 137.957 22.3768 137.976 22.9181 137.976C23.9448 137.976 24.9901 137.985 26.0541 138.004C27.1181 138.004 28.2008 138.004 29.3021 138.004V137.08C27.5661 136.893 26.2875 136.492 25.4661 135.876C24.6635 135.241 24.2621 134.467 24.2621 133.552C24.2621 132.917 24.4301 132.367 24.7661 131.9C25.1021 131.415 25.5688 131.013 26.1661 130.696C26.7821 130.379 27.5008 130.145 28.3221 129.996C29.1621 129.828 30.0768 129.744 31.0661 129.744C31.4581 129.744 31.8595 129.781 32.2701 129.856C32.6995 129.931 33.0915 130.043 33.4461 130.192C33.8195 130.341 34.1368 130.528 34.3981 130.752C34.6595 130.957 34.8181 131.2 34.8741 131.48C35.7141 131.573 36.3768 131.807 36.8621 132.18C37.3661 132.553 37.6368 133.067 37.6741 133.72C37.7115 134.653 37.3381 135.409 36.5541 135.988C35.7888 136.567 34.6501 136.931 33.1381 137.08L33.0821 138.004C34.4261 138.004 35.7421 137.995 37.0301 137.976C38.3368 137.957 39.6155 137.911 40.8661 137.836C41.3141 137.817 41.6781 137.92 41.9581 138.144C42.2568 138.368 42.4715 138.629 42.6021 138.928C42.7328 139.227 42.7795 139.525 42.7421 139.824C42.7235 140.104 42.6208 140.3 42.4341 140.412C42.2661 140.505 42.0235 140.552 41.7061 140.552C41.4075 140.552 41.0155 140.543 40.5301 140.524C40.0635 140.487 39.5221 140.449 38.9061 140.412C38.2901 140.356 37.5901 140.319 36.8061 140.3C35.9101 140.281 35.0328 140.263 34.1741 140.244C33.3341 140.225 32.4008 140.225 31.3741 140.244C30.3475 140.244 29.1808 140.263 27.8741 140.3C26.5675 140.337 25.0181 140.384 23.2261 140.44ZM35.4341 148.364C35.6768 148.345 35.9568 148.317 36.2741 148.28C36.5915 148.243 36.8995 148.205 37.1981 148.168C37.5155 148.149 37.8141 148.121 38.0941 148.084C38.3928 148.047 38.6448 148.009 38.8501 147.972C39.1301 147.935 39.3261 147.963 39.4381 148.056C39.5501 148.149 39.5595 148.308 39.4661 148.532C39.3541 148.775 39.2141 149.036 39.0461 149.316C38.8968 149.596 38.7008 149.857 38.4581 150.1C38.2155 150.361 37.9168 150.585 37.5621 150.772C37.2261 150.959 36.8248 151.071 36.3581 151.108C34.7341 151.22 33.1755 151.267 31.6821 151.248C30.1888 151.229 28.5741 151.127 26.8381 150.94C25.9608 150.847 25.2981 150.613 24.8501 150.24C24.4021 149.885 24.0661 149.465 23.8421 148.98C23.6928 148.663 23.5808 148.364 23.5061 148.084C23.4315 147.804 23.3475 147.477 23.2541 147.104C23.0488 146.787 22.9555 146.404 22.9741 145.956C23.0115 145.489 23.1328 145.125 23.3381 144.864C24.0661 144.976 24.9435 145.051 25.9701 145.088C27.0155 145.107 28.0981 145.116 29.2181 145.116C30.3381 145.116 31.4395 145.107 32.5221 145.088C33.6048 145.069 34.5568 145.06 35.3781 145.06C35.4155 144.967 35.4528 144.855 35.4901 144.724C35.5461 144.593 35.5835 144.463 35.6021 144.332C35.6208 144.183 35.5555 144.089 35.4061 144.052C35.2755 143.996 35.1355 143.968 34.9861 143.968C34.8181 143.987 34.5101 143.996 34.0621 143.996C33.6328 143.996 33.1288 143.996 32.5501 143.996C31.9715 143.996 31.3555 143.996 30.7021 143.996C30.0488 143.996 29.4235 144.005 28.8261 144.024C28.2475 144.024 27.7248 144.024 27.2581 144.024C26.8101 144.024 26.4928 144.033 26.3061 144.052C26.0075 144.071 25.6715 144.099 25.2981 144.136C24.9248 144.155 24.5981 144.164 24.3181 144.164C23.8701 144.164 23.5248 144.043 23.2821 143.8C23.0581 143.539 22.8995 143.249 22.8061 142.932C22.7128 142.615 22.6475 142.316 22.6101 142.036C22.5915 141.737 22.5728 141.551 22.5541 141.476C23.0395 141.513 23.5715 141.541 24.1501 141.56C24.7288 141.579 25.3168 141.579 25.9141 141.56C26.2501 141.56 26.7635 141.551 27.4541 141.532C28.1448 141.513 28.9195 141.504 29.7781 141.504C30.6555 141.485 31.5608 141.476 32.4941 141.476C33.4461 141.457 34.3328 141.448 35.1541 141.448C35.9755 141.448 36.6848 141.467 37.2821 141.504C37.8981 141.523 38.2995 141.56 38.4861 141.616C38.8221 141.728 39.0461 141.933 39.1581 142.232C39.1955 142.4 39.1861 142.605 39.1301 142.848C39.0928 143.091 39.0368 143.343 38.9621 143.604C38.8875 143.847 38.8035 144.071 38.7101 144.276C38.6355 144.481 38.5888 144.631 38.5701 144.724C38.5328 144.892 38.4955 145.107 38.4581 145.368C38.4208 145.611 38.3648 145.863 38.2901 146.124C38.2341 146.385 38.1315 146.637 37.9821 146.88C37.8515 147.104 37.6648 147.281 37.4221 147.412C36.9928 147.356 36.3675 147.319 35.5461 147.3C34.7435 147.263 33.8475 147.244 32.8581 147.244C31.8688 147.244 30.8328 147.253 29.7501 147.272C28.6861 147.291 27.6968 147.309 26.7821 147.328C26.7821 147.627 26.8475 147.851 26.9781 148C27.1275 148.131 27.4168 148.233 27.8461 148.308C28.2755 148.383 28.7981 148.439 29.4141 148.476C30.0301 148.513 30.6741 148.532 31.3461 148.532C32.0368 148.551 32.7368 148.541 33.4461 148.504C34.1555 148.485 34.8181 148.439 35.4341 148.364ZM38.5701 129.408C37.8608 129.259 37.0021 129.165 35.9941 129.128C35.0048 129.072 33.9875 129.053 32.9421 129.072C31.9155 129.072 30.9355 129.1 30.0021 129.156C29.0875 129.193 28.3595 129.231 27.8181 129.268C27.0341 129.324 26.3621 129.408 25.8021 129.52C25.2608 129.613 24.7288 129.641 24.2061 129.604C22.4515 129.511 21.7048 128.549 21.9661 126.72C23.0301 126.813 24.1781 126.888 25.4101 126.944C26.6608 126.981 27.9301 127 29.2181 127C29.2555 126.627 29.1621 126.309 28.9381 126.048C28.7328 125.787 28.3688 125.507 27.8461 125.208V124.928C28.1448 124.779 28.5275 124.657 28.9941 124.564C29.4795 124.452 29.9648 124.396 30.4501 124.396C30.9355 124.396 31.3835 124.471 31.7941 124.62C32.2235 124.769 32.5315 125.012 32.7181 125.348C32.8301 125.553 32.8768 125.777 32.8581 126.02C32.8581 126.244 32.7835 126.543 32.6341 126.916C33.8101 126.86 34.8835 126.776 35.8541 126.664C36.3395 126.608 36.7501 126.561 37.0861 126.524C37.4221 126.487 37.6835 126.477 37.8701 126.496C38.4301 126.552 38.8595 126.748 39.1581 127.084C39.4755 127.42 39.6621 127.775 39.7181 128.148C39.7741 128.503 39.7088 128.82 39.5221 129.1C39.3355 129.361 39.0181 129.464 38.5701 129.408ZM31.9061 132.152C30.9541 132.171 30.1981 132.339 29.6381 132.656C29.0968 132.955 28.8448 133.319 28.8821 133.748C28.9195 134.196 29.1995 134.523 29.7221 134.728C30.2448 134.915 30.9541 134.999 31.8501 134.98C33.6608 134.943 34.5475 134.457 34.5101 133.524C34.4915 133.151 34.2301 132.843 33.7261 132.6C33.2221 132.339 32.6155 132.189 31.9061 132.152ZM48.0451 148.336C47.3917 148.373 46.8504 148.345 46.4211 148.252C45.9917 148.177 45.6557 147.991 45.4131 147.692C45.1891 147.393 45.0397 146.983 44.9651 146.46C44.9091 145.937 44.9184 145.265 44.9931 144.444C46.6544 144.612 48.2691 144.743 49.8371 144.836C51.4051 144.929 52.9731 144.985 54.5411 145.004L54.5131 141.364L51.0691 141.28C50.0797 141.261 49.3704 140.888 48.9411 140.16C48.5304 139.413 48.3437 138.125 48.3811 136.296C48.1197 136.277 47.9144 136.109 47.7651 135.792C47.6344 135.475 47.5504 135.12 47.5131 134.728C47.4944 134.317 47.5131 133.907 47.5691 133.496C47.6437 133.067 47.7557 132.74 47.9051 132.516C48.8571 132.74 49.8557 132.88 50.9011 132.936C51.9651 132.992 53.0291 133.011 54.0931 132.992C55.1571 132.973 56.2024 132.936 57.2291 132.88C58.2557 132.824 59.2264 132.796 60.1411 132.796C60.1597 132.609 60.1877 132.339 60.2251 131.984C60.2811 131.611 60.2997 131.265 60.2811 130.948C60.2624 130.743 60.1784 130.621 60.0291 130.584C59.8797 130.547 59.6651 130.519 59.3851 130.5C58.8624 130.481 58.3024 130.472 57.7051 130.472C57.1077 130.472 56.5011 130.481 55.8851 130.5C55.2691 130.519 54.6624 130.547 54.0651 130.584C53.4677 130.603 52.9077 130.631 52.3851 130.668C52.2357 130.687 52.0397 130.715 51.7971 130.752C51.5731 130.789 51.3211 130.827 51.0411 130.864C50.7797 130.901 50.5184 130.939 50.2571 130.976C49.9957 130.995 49.7624 131.004 49.5571 131.004C49.1464 130.985 48.8011 130.883 48.5211 130.696C48.2411 130.491 48.0171 130.229 47.8491 129.912C47.6811 129.595 47.5597 129.231 47.4851 128.82C47.4104 128.409 47.3731 127.961 47.3731 127.476C48.3624 127.569 49.3331 127.625 50.2851 127.644C51.2557 127.663 52.2357 127.672 53.2251 127.672C54.5504 127.672 55.8944 127.653 57.2571 127.616C58.6197 127.56 59.9917 127.467 61.3731 127.336C63.1837 127.168 64.2011 127.625 64.4251 128.708C64.4811 128.951 64.4904 129.231 64.4531 129.548C64.4157 129.865 64.3597 130.183 64.2851 130.5C64.2104 130.817 64.1264 131.116 64.0331 131.396C63.9584 131.657 63.9117 131.853 63.8931 131.984C63.8371 132.245 63.7997 132.572 63.7811 132.964C63.7624 133.337 63.7251 133.72 63.6691 134.112C63.6131 134.504 63.5197 134.877 63.3891 135.232C63.2771 135.587 63.0904 135.857 62.8291 136.044C62.3437 135.988 61.6997 135.941 60.8971 135.904C60.1131 135.867 59.2357 135.848 58.2651 135.848C57.2944 135.829 56.2677 135.839 55.1851 135.876C54.1211 135.895 53.0571 135.932 51.9931 135.988C51.8811 137.089 52.0024 137.752 52.3571 137.976C52.5251 138.125 52.7957 138.209 53.1691 138.228C53.5611 138.247 54.0091 138.265 54.5131 138.284C56.3424 138.34 58.0597 138.312 59.6651 138.2C61.2704 138.069 62.8477 137.845 64.3971 137.528C64.6211 138.088 64.7144 138.592 64.6771 139.04C64.6397 139.488 64.5091 139.871 64.2851 140.188C64.0611 140.505 63.7624 140.757 63.3891 140.944C63.0157 141.131 62.5957 141.233 62.1291 141.252C61.5131 141.289 60.8877 141.317 60.2531 141.336C59.6371 141.336 59.0024 141.345 58.3491 141.364C58.3304 142.092 58.3117 142.801 58.2931 143.492C58.2744 144.164 58.2651 144.659 58.2651 144.976C59.7771 144.939 61.2891 144.873 62.8011 144.78C64.3317 144.687 65.9091 144.556 67.5331 144.388C68.1304 145.732 68.2331 146.759 67.8411 147.468C67.4491 148.159 66.5717 148.429 65.2091 148.28C62.3717 147.981 59.5437 147.869 56.7251 147.944C53.9064 148.019 51.0131 148.149 48.0451 148.336ZM90.476 128.988C90.476 129.025 90.4667 129.063 90.448 129.1C90.448 129.137 90.448 129.175 90.448 129.212C90.7653 129.156 91.0827 129.1 91.4 129.044C91.7173 128.969 92.0253 128.895 92.324 128.82C92.492 128.783 92.6693 128.773 92.856 128.792C93.0427 128.811 93.2013 128.867 93.332 128.96C93.7053 129.259 93.9573 129.548 94.088 129.828C94.2187 130.089 94.2653 130.379 94.228 130.696C94.2093 130.808 94.172 130.929 94.116 131.06C94.06 131.191 93.9853 131.321 93.892 131.452C93.8173 131.564 93.7147 131.667 93.584 131.76C93.4533 131.835 93.3133 131.863 93.164 131.844C92.6787 131.807 92.1933 131.779 91.708 131.76C91.2413 131.741 90.7653 131.723 90.28 131.704C90.2613 132.096 90.2427 132.488 90.224 132.88C90.224 133.272 90.224 133.664 90.224 134.056C90.5973 134 90.9613 133.935 91.316 133.86C91.6707 133.785 92.0067 133.711 92.324 133.636C92.492 133.599 92.6693 133.589 92.856 133.608C93.0427 133.627 93.2013 133.683 93.332 133.776C93.7053 134.075 93.9573 134.364 94.088 134.644C94.2187 134.905 94.2653 135.195 94.228 135.512C94.2093 135.624 94.172 135.745 94.116 135.876C94.06 136.007 93.9853 136.137 93.892 136.268C93.8173 136.38 93.7147 136.483 93.584 136.576C93.4533 136.651 93.3133 136.679 93.164 136.66C92.6787 136.623 92.1933 136.595 91.708 136.576C91.2413 136.557 90.7653 136.539 90.28 136.52L90.336 137.164C90.3733 137.911 90.2147 138.517 89.86 138.984C89.524 139.451 89.0947 139.768 88.572 139.936C88.292 140.029 87.9467 140.095 87.536 140.132C87.1253 140.169 86.7613 140.179 86.444 140.16C86.5 139.955 86.5467 139.656 86.584 139.264C86.6213 138.872 86.6307 138.508 86.612 138.172L86.528 136.576C86.0613 137.061 85.492 137.463 84.82 137.78C84.148 138.079 83.4387 138.284 82.692 138.396C81.964 138.508 81.348 138.583 80.844 138.62C80.34 138.639 79.864 138.648 79.416 138.648C78.968 138.629 78.492 138.62 77.988 138.62C77.5027 138.601 76.9053 138.62 76.196 138.676C75.5427 138.713 74.9453 138.779 74.404 138.872C73.8813 138.947 73.4053 139.031 72.976 139.124C72.696 139.18 72.4253 139.161 72.164 139.068C71.9027 138.975 71.7347 138.825 71.66 138.62C71.604 138.489 71.5387 138.321 71.464 138.116C71.3893 137.892 71.3147 137.668 71.24 137.444C71.1653 137.22 71.1093 136.996 71.072 136.772C71.0347 136.529 71.0253 136.324 71.044 136.156C71.044 136.044 71.1 135.867 71.212 135.624C71.324 135.381 71.4547 135.241 71.604 135.204C71.6413 134.215 71.6413 133.421 71.604 132.824C71.5667 132.208 71.52 131.629 71.464 131.088C71.4267 130.771 71.3707 130.435 71.296 130.08C71.2213 129.725 71.128 129.389 71.016 129.072C70.904 128.736 70.7733 128.447 70.624 128.204C70.4747 127.943 70.3067 127.756 70.12 127.644V127.392C70.4 127.261 70.7453 127.149 71.156 127.056C71.5667 126.963 71.9867 126.925 72.416 126.944C72.8453 126.963 73.256 127.047 73.648 127.196C74.04 127.345 74.3667 127.588 74.628 127.924C75.132 128.577 75.412 129.595 75.468 130.976C75.5427 132.339 75.4773 133.981 75.272 135.904C76.0747 135.923 76.9147 135.932 77.792 135.932C78.688 135.932 79.612 135.895 80.564 135.82C81.516 135.727 82.4867 135.587 83.476 135.4C84.484 135.213 85.492 134.952 86.5 134.616V134.392C86.5 133.384 86.5 132.423 86.5 131.508C86.5 130.575 86.5093 129.632 86.528 128.68C86.5467 127.84 86.4813 127.187 86.332 126.72C86.2013 126.235 85.94 125.899 85.548 125.712L85.688 125.376C86.8453 125.376 87.7413 125.441 88.376 125.572C89.0107 125.684 89.4773 125.927 89.776 126.3C90.0373 126.599 90.2333 126.953 90.364 127.364C90.4947 127.756 90.532 128.297 90.476 128.988ZM88.74 150.576C87.8813 150.464 86.9573 150.371 85.968 150.296C84.9973 150.24 84.0267 150.212 83.056 150.212C82.104 150.212 81.1893 150.231 80.312 150.268C79.4347 150.324 78.6693 150.408 78.016 150.52C77.792 150.688 77.5213 150.809 77.204 150.884C76.9053 150.977 76.6253 151.043 76.364 151.08C75.8227 151.117 75.4493 151.015 75.244 150.772C75.0573 150.529 74.964 150.137 74.964 149.596C74.964 148.905 74.9267 148.205 74.852 147.496C74.796 146.787 74.7213 146.096 74.628 145.424C74.5533 144.752 74.4507 144.117 74.32 143.52C74.208 142.904 74.096 142.353 73.984 141.868C74.1147 141.569 74.3387 141.336 74.656 141.168C74.992 140.981 75.3467 140.869 75.72 140.832C76.0933 140.776 76.448 140.785 76.784 140.86C77.1387 140.935 77.4 141.084 77.568 141.308C77.5867 141.364 77.596 141.42 77.596 141.476C77.6147 141.513 77.624 141.569 77.624 141.644C78.0907 141.588 78.66 141.532 79.332 141.476C80.004 141.42 80.7133 141.373 81.46 141.336C82.2067 141.299 82.972 141.271 83.756 141.252C84.54 141.215 85.2773 141.205 85.968 141.224C86.6773 141.224 87.312 141.252 87.872 141.308C88.4507 141.345 88.908 141.411 89.244 141.504C89.6547 141.653 89.916 141.933 90.028 142.344C90.1027 142.624 90.1307 142.904 90.112 143.184C90.0933 143.464 90.056 143.735 90 143.996C89.944 144.257 89.8787 144.519 89.804 144.78C89.748 145.023 89.72 145.237 89.72 145.424C89.72 145.685 89.7013 146.059 89.664 146.544C89.6453 147.029 89.5987 147.533 89.524 148.056C89.468 148.579 89.3747 149.073 89.244 149.54C89.132 150.007 88.964 150.352 88.74 150.576ZM78.156 144.332C78.1933 144.612 78.24 145.079 78.296 145.732C78.3707 146.367 78.4267 147.039 78.464 147.748C79.696 147.561 80.9373 147.459 82.188 147.44C83.4387 147.421 84.6707 147.477 85.884 147.608C85.94 147.309 85.9867 146.899 86.024 146.376C86.0613 145.835 86.0613 145.321 86.024 144.836C86.0053 144.631 85.9493 144.472 85.856 144.36C85.7627 144.229 85.6227 144.155 85.436 144.136C85.1747 144.136 84.7453 144.136 84.148 144.136C83.5507 144.136 82.8973 144.145 82.188 144.164C81.4787 144.183 80.76 144.211 80.032 144.248C79.304 144.267 78.6787 144.295 78.156 144.332ZM115.687 128.988C115.687 129.025 115.678 129.063 115.659 129.1C115.659 129.137 115.659 129.175 115.659 129.212C115.976 129.156 116.294 129.1 116.611 129.044C116.928 128.969 117.236 128.895 117.535 128.82C117.703 128.783 117.88 128.773 118.067 128.792C118.254 128.811 118.412 128.867 118.543 128.96C118.916 129.259 119.168 129.548 119.299 129.828C119.43 130.089 119.476 130.379 119.439 130.696C119.42 130.808 119.383 130.929 119.327 131.06C119.271 131.191 119.196 131.321 119.103 131.452C119.028 131.564 118.926 131.667 118.795 131.76C118.664 131.835 118.524 131.863 118.375 131.844C117.89 131.807 117.404 131.779 116.919 131.76C116.452 131.741 115.976 131.723 115.491 131.704C115.472 132.096 115.454 132.488 115.435 132.88C115.435 133.272 115.435 133.664 115.435 134.056C115.808 134 116.172 133.935 116.527 133.86C116.882 133.785 117.218 133.711 117.535 133.636C117.703 133.599 117.88 133.589 118.067 133.608C118.254 133.627 118.412 133.683 118.543 133.776C118.916 134.075 119.168 134.364 119.299 134.644C119.43 134.905 119.476 135.195 119.439 135.512C119.42 135.624 119.383 135.745 119.327 135.876C119.271 136.007 119.196 136.137 119.103 136.268C119.028 136.38 118.926 136.483 118.795 136.576C118.664 136.651 118.524 136.679 118.375 136.66C117.89 136.623 117.404 136.595 116.919 136.576C116.452 136.557 115.976 136.539 115.491 136.52L115.547 137.164C115.584 137.911 115.426 138.517 115.071 138.984C114.735 139.451 114.306 139.768 113.783 139.936C113.503 140.029 113.158 140.095 112.747 140.132C112.336 140.169 111.972 140.179 111.655 140.16C111.711 139.955 111.758 139.656 111.795 139.264C111.832 138.872 111.842 138.508 111.823 138.172L111.739 136.576C111.272 137.061 110.703 137.463 110.031 137.78C109.359 138.079 108.65 138.284 107.903 138.396C107.175 138.508 106.559 138.583 106.055 138.62C105.551 138.639 105.075 138.648 104.627 138.648C104.179 138.629 103.703 138.62 103.199 138.62C102.714 138.601 102.116 138.62 101.407 138.676C100.754 138.713 100.156 138.779 99.6149 138.872C99.0923 138.947 98.6163 139.031 98.1869 139.124C97.9069 139.18 97.6363 139.161 97.3749 139.068C97.1136 138.975 96.9456 138.825 96.8709 138.62C96.8149 138.489 96.7496 138.321 96.6749 138.116C96.6003 137.892 96.5256 137.668 96.4509 137.444C96.3763 137.22 96.3203 136.996 96.2829 136.772C96.2456 136.529 96.2363 136.324 96.2549 136.156C96.2549 136.044 96.3109 135.867 96.4229 135.624C96.5349 135.381 96.6656 135.241 96.8149 135.204C96.8523 134.215 96.8523 133.421 96.8149 132.824C96.7776 132.208 96.7309 131.629 96.6749 131.088C96.6376 130.771 96.5816 130.435 96.5069 130.08C96.4323 129.725 96.3389 129.389 96.2269 129.072C96.1149 128.736 95.9843 128.447 95.8349 128.204C95.6856 127.943 95.5176 127.756 95.3309 127.644V127.392C95.6109 127.261 95.9563 127.149 96.3669 127.056C96.7776 126.963 97.1976 126.925 97.6269 126.944C98.0563 126.963 98.4669 127.047 98.8589 127.196C99.2509 127.345 99.5776 127.588 99.8389 127.924C100.343 128.577 100.623 129.595 100.679 130.976C100.754 132.339 100.688 133.981 100.483 135.904C101.286 135.923 102.126 135.932 103.003 135.932C103.899 135.932 104.823 135.895 105.775 135.82C106.727 135.727 107.698 135.587 108.687 135.4C109.695 135.213 110.703 134.952 111.711 134.616V134.392C111.711 133.384 111.711 132.423 111.711 131.508C111.711 130.575 111.72 129.632 111.739 128.68C111.758 127.84 111.692 127.187 111.543 126.72C111.412 126.235 111.151 125.899 110.759 125.712L110.899 125.376C112.056 125.376 112.952 125.441 113.587 125.572C114.222 125.684 114.688 125.927 114.987 126.3C115.248 126.599 115.444 126.953 115.575 127.364C115.706 127.756 115.743 128.297 115.687 128.988ZM113.951 150.576C113.092 150.464 112.168 150.371 111.179 150.296C110.208 150.24 109.238 150.212 108.267 150.212C107.315 150.212 106.4 150.231 105.523 150.268C104.646 150.324 103.88 150.408 103.227 150.52C103.003 150.688 102.732 150.809 102.415 150.884C102.116 150.977 101.836 151.043 101.575 151.08C101.034 151.117 100.66 151.015 100.455 150.772C100.268 150.529 100.175 150.137 100.175 149.596C100.175 148.905 100.138 148.205 100.063 147.496C100.007 146.787 99.9323 146.096 99.8389 145.424C99.7643 144.752 99.6616 144.117 99.5309 143.52C99.4189 142.904 99.3069 142.353 99.1949 141.868C99.3256 141.569 99.5496 141.336 99.8669 141.168C100.203 140.981 100.558 140.869 100.931 140.832C101.304 140.776 101.659 140.785 101.995 140.86C102.35 140.935 102.611 141.084 102.779 141.308C102.798 141.364 102.807 141.42 102.807 141.476C102.826 141.513 102.835 141.569 102.835 141.644C103.302 141.588 103.871 141.532 104.543 141.476C105.215 141.42 105.924 141.373 106.671 141.336C107.418 141.299 108.183 141.271 108.967 141.252C109.751 141.215 110.488 141.205 111.179 141.224C111.888 141.224 112.523 141.252 113.083 141.308C113.662 141.345 114.119 141.411 114.455 141.504C114.866 141.653 115.127 141.933 115.239 142.344C115.314 142.624 115.342 142.904 115.323 143.184C115.304 143.464 115.267 143.735 115.211 143.996C115.155 144.257 115.09 144.519 115.015 144.78C114.959 145.023 114.931 145.237 114.931 145.424C114.931 145.685 114.912 146.059 114.875 146.544C114.856 147.029 114.81 147.533 114.735 148.056C114.679 148.579 114.586 149.073 114.455 149.54C114.343 150.007 114.175 150.352 113.951 150.576ZM103.367 144.332C103.404 144.612 103.451 145.079 103.507 145.732C103.582 146.367 103.638 147.039 103.675 147.748C104.907 147.561 106.148 147.459 107.399 147.44C108.65 147.421 109.882 147.477 111.095 147.608C111.151 147.309 111.198 146.899 111.235 146.376C111.272 145.835 111.272 145.321 111.235 144.836C111.216 144.631 111.16 144.472 111.067 144.36C110.974 144.229 110.834 144.155 110.647 144.136C110.386 144.136 109.956 144.136 109.359 144.136C108.762 144.136 108.108 144.145 107.399 144.164C106.69 144.183 105.971 144.211 105.243 144.248C104.515 144.267 103.89 144.295 103.367 144.332Z" fill="white"/>
<path d="M41.1811 41.6077L42.0001 43H50.6374C60.6483 43 70.2441 39.1563 79.985 36.8467C85.4114 35.5601 91.0879 35.348 96.6888 36.2815L98.0001 36.5L98.0519 36.3576C98.1455 36.1002 98.2177 35.8405 98.2695 35.5805C99.0968 31.424 94.8857 24 90.6478 24C89.4617 24 88.5438 22.9857 87.9982 21.9326C87.2494 20.4875 85.7401 19.5 84.0001 19.5C82.1713 19.5 80.5968 18.3064 79.1886 17.1394C77.1477 15.4481 74.1965 15.0481 71.6969 16.394C71.5741 16.4602 71.4261 16.4593 71.3014 16.3966C67.6875 14.5801 63.2638 15.8215 61.131 19.2873C61.0558 19.4095 60.9021 19.4573 60.7684 19.4054C57.0556 17.9656 52.8617 19.9152 51.5918 23.725C51.5371 23.8892 51.383 23.9988 51.21 24.0064C47.7548 24.1581 45.0001 27.0074 45.0001 30.5C45.0001 31.6754 44.1602 32.6526 43.1694 33.2849C40.4749 35.0047 39.4445 38.6555 41.1811 41.6077Z" fill="white"/>
<path d="M33.5347 59.9415C35.8872 65.1839 35.0178 70.6796 29.7683 73.0352C24.5189 75.3909 20.0361 72.272 17.6837 67.0296C15.3312 61.7873 14.5665 53.2125 19.816 50.8568C25.0655 48.5011 31.1822 54.6992 33.5347 59.9415Z" fill="white"/>
<path d="M21.1491 52.0001C24.0151 76.7854 44.4125 96.0001 69.1491 96.0001C92.7433 96.0001 114.542 79.1694 116.939 55.4871C117.132 53.5797 115.576 51.9976 113.659 51.9946C111.734 51.9916 110.2 53.5797 110.077 55.5007C108.755 76.285 91.5699 92.0001 69.1491 92.0001C45.4819 92.0001 27.0039 75.6779 24.1491 52.0001L21.1491 52.0001Z" fill="white"/>
<path d="M110.232 46.7663C110.768 46.7724 111.2 47.209 111.2 47.7454C111.2 48.2819 110.768 48.7185 110.232 48.7246L27.9364 49.6598C26.8706 49.6719 26.0001 48.8113 26.0001 47.7454C26.0001 46.6796 26.8706 45.819 27.9364 45.8311L110.232 46.7663Z" fill="white"/>
<path d="M68.6001 47.7454H111.2C110.418 43.4168 101.18 40 89.9001 40C78.6196 40 69.3821 43.4168 68.6001 47.7454Z" fill="white"/>
<path d="M112.481 102.859C112.962 102.864 113.349 103.255 113.349 103.736C113.349 104.217 112.962 104.608 112.481 104.613L29.885 105.454C28.9292 105.464 28.1491 104.692 28.1491 103.736C28.1491 102.78 28.9292 102.008 29.885 102.018L112.481 102.859Z" fill="white"/>
<path d="M112.481 108.067C112.962 108.072 113.349 108.463 113.349 108.944C113.349 109.425 112.962 109.816 112.481 109.821L29.885 110.662C28.9292 110.672 28.1491 109.9 28.1491 108.944C28.1491 107.988 28.9292 107.216 29.885 107.226L112.481 108.067Z" fill="white"/>
<path d="M37.0765 28.4356L21.2588 21.3368C23.8156 18.0545 27.588 16.5642 31.9121 18.5048C36.2434 20.4486 37.7775 24.3155 37.0765 28.4356Z" fill="white"/>
<path d="M15.4525 37.7639C15.014 37.5671 14.8112 37.0557 14.9938 36.607L21.2588 21.3368L23.9097 22.5265L16.6218 37.3376C16.4079 37.7723 15.8911 37.9607 15.4525 37.7639Z" fill="white"/>
<path d="M19.9642 39.7887C19.6353 39.6411 19.5225 39.1701 19.709 38.7231L26.0965 23.5079L28.0845 24.4001L20.93 39.2711C20.72 39.7075 20.2931 39.9363 19.9642 39.7887Z" fill="white"/>
<path d="M24.139 41.6623C23.8101 41.5147 23.6973 41.0436 23.8838 40.5967L30.2713 25.3815L32.2593 26.2737L25.1048 41.1447C24.8948 41.5811 24.4679 41.8099 24.139 41.6623Z" fill="white"/>
<path d="M28.585 43.6576C28.1649 43.469 27.9771 42.9644 28.1604 42.516L34.4461 27.2551L37.0968 28.4447L29.7202 43.216C29.507 43.651 29.0052 43.8462 28.585 43.6576Z" fill="white"/>
<path d="M29.0001 22H32.514C40.6599 10.8045 53.7778 4 69.059 4C91.4798 4 108.664 19.7151 109.987 40.4994C110.11 42.4204 111.644 44.0085 113.569 44.0055C115.486 44.0025 117.042 42.4204 116.849 40.513C114.452 16.8307 92.6532 0 69.059 0C52.3901 0 37.6917 8.72493 29.0001 22Z" fill="white"/>
</g>
<defs>
<clipPath id="clip0_282_13527">
<rect width="138" height="154" fill="white"/>
</clipPath>
</defs>
</svg>
