<svg width="102" height="110" viewBox="0 0 102 110" fill="none" xmlns="http://www.w3.org/2000/svg">
<g id="Group 62">
<g id="Vector">
<path d="M26.2544 41.6077L27.0734 43H35.7106C45.7215 43 55.3174 39.1563 65.0582 36.8467C70.4846 35.5601 76.1611 35.348 81.7621 36.2815L83.0734 36.5L83.1251 36.3576C83.2188 36.1002 83.291 35.8405 83.3427 35.5805C84.1701 31.424 79.959 24 75.721 24C74.5349 24 73.6171 22.9857 73.0714 21.9326C72.3226 20.4875 70.8133 19.5 69.0734 19.5C67.2445 19.5 65.67 18.3064 64.2618 17.1394C62.2209 15.4481 59.2697 15.0481 56.7702 16.394C56.6473 16.4602 56.4993 16.4593 56.3747 16.3966C52.7608 14.5801 48.337 15.8215 46.2043 19.2873C46.1291 19.4095 45.9754 19.4573 45.8416 19.4054C42.1289 17.9656 37.935 19.9152 36.665 23.725C36.6103 23.8892 36.4563 23.9988 36.2833 24.0064C32.828 24.1581 30.0734 27.0074 30.0734 30.5C30.0734 31.6754 29.2334 32.6526 28.2426 33.2849C25.5481 35.0047 24.5178 38.6555 26.2544 41.6077Z" fill="#DBDBDB"/>
<path d="M18.6079 59.9415C20.9604 65.1839 20.0911 70.6796 14.8416 73.0352C9.5921 75.3909 5.10938 72.272 2.75691 67.0296C0.404449 61.7873 -0.360262 53.2125 4.88923 50.8568C10.1387 48.5011 16.2555 54.6992 18.6079 59.9415Z" fill="#DBDBDB"/>
<path d="M6.22235 52.0001C9.08835 76.7854 29.4857 96.0001 54.2224 96.0001C77.8166 96.0001 99.6156 79.1694 102.013 55.4871C102.206 53.5797 100.65 51.9976 98.7324 51.9946C96.8075 51.9916 95.2729 53.5797 95.1506 55.5007C93.8279 76.285 76.6432 92.0001 54.2224 92.0001C30.5551 92.0001 12.0772 75.6779 9.22236 52.0001L6.22235 52.0001Z" fill="#DBDBDB"/>
<path d="M95.3052 46.7663C95.8416 46.7724 96.2733 47.209 96.2732 47.7454C96.2733 48.2819 95.8416 48.7185 95.3052 48.7246L13.0096 49.6598C11.9438 49.6719 11.0734 48.8113 11.0734 47.7454C11.0734 46.6796 11.9438 45.819 13.0096 45.8311L95.3052 46.7663Z" fill="#DBDBDB"/>
<path d="M53.6733 47.7454H96.2732C95.4912 43.4168 86.2537 40 74.9733 40C63.6929 40 54.4554 43.4168 53.6733 47.7454Z" fill="#DBDBDB"/>
<path d="M97.5544 102.859C98.0352 102.864 98.4223 103.255 98.4223 103.736C98.4223 104.217 98.0352 104.608 97.5544 104.613L14.9583 105.454C14.0024 105.464 13.2224 104.692 13.2224 103.736C13.2224 102.78 14.0024 102.008 14.9583 102.018L97.5544 102.859Z" fill="#DBDBDB"/>
<path d="M97.5544 108.067C98.0352 108.072 98.4223 108.463 98.4223 108.944C98.4223 109.425 98.0352 109.816 97.5544 109.821L14.9583 110.662C14.0024 110.672 13.2224 109.9 13.2224 108.944C13.2224 107.988 14.0024 107.216 14.9583 107.226L97.5544 108.067Z" fill="#DBDBDB"/>
<path d="M22.1497 28.4356L6.33204 21.3368C8.88884 18.0545 12.6612 16.5642 16.9853 18.5048C21.3166 20.4486 22.8507 24.3155 22.1497 28.4356Z" fill="#DBDBDB"/>
<path d="M0.525778 37.7639C0.0872337 37.5671 -0.115559 37.0557 0.0670111 36.607L6.33204 21.3368L8.9829 22.5265L1.69506 37.3376C1.48118 37.7723 0.964321 37.9607 0.525778 37.7639Z" fill="#DBDBDB"/>
<path d="M5.03746 39.7887C4.70855 39.6411 4.59572 39.1701 4.7822 38.7231L11.1697 23.5079L13.1577 24.4001L6.00324 39.2711C5.79327 39.7075 5.36637 39.9363 5.03746 39.7887Z" fill="#DBDBDB"/>
<path d="M9.21228 41.6623C8.88337 41.5147 8.77053 41.0436 8.95702 40.5967L15.3445 25.3815L17.3326 26.2737L10.1781 41.1447C9.96809 41.5811 9.54118 41.8099 9.21228 41.6623Z" fill="#DBDBDB"/>
<path d="M13.6583 43.6576C13.2381 43.469 13.0504 42.9644 13.2336 42.516L19.5193 27.2551L22.17 28.4447L14.7934 43.216C14.5802 43.651 14.0784 43.8462 13.6583 43.6576Z" fill="#DBDBDB"/>
<path d="M14.0733 22H17.5872C25.7332 10.8045 38.851 4 54.1322 4C76.553 4 93.7377 19.7151 95.0605 40.4994C95.1827 42.4204 96.7174 44.0085 98.6423 44.0055C100.559 44.0025 102.116 42.4204 101.922 40.513C99.5255 16.8307 77.7264 0 54.1322 0C37.4634 0 22.7649 8.72493 14.0733 22Z" fill="#DBDBDB"/>
</g>
<path id="Vector 8" d="M35.5 68.5L41.5 72L44.6918 73.5959C50.8986 76.6993 58.1718 76.8477 64.5 74V74M64.5 74L64.3596 69.7872C64.2083 65.2484 69.2326 62.4213 73.0336 64.9066V64.9066C74.818 66.0733 74.6991 68.7258 72.8175 69.7282L69.3642 71.5679L69.5 71.5L64.5 74Z" stroke="#DBDBDB" stroke-width="3"/>
</g>
</svg>
