<svg width="101" height="27" viewBox="0 0 101 27" fill="none" xmlns="http://www.w3.org/2000/svg">
<path d="M4.22613 16.1021C4.02079 16.1021 3.77813 16.1301 3.49813 16.1861C3.21813 16.2234 2.92879 16.2514 2.63013 16.2701C2.33146 16.2701 2.04213 16.2514 1.76213 16.2141C1.50079 16.1768 1.27679 16.0741 1.09013 15.9061C0.903458 15.7381 0.754125 15.5421 0.642125 15.3181C0.530125 15.0941 0.455458 14.8701 0.418125 14.6461C0.380792 14.4034 0.371458 14.1701 0.390125 13.9461C0.427458 13.7221 0.502125 13.5354 0.614125 13.3861C1.15546 13.4794 1.70613 13.5448 2.26613 13.5821C2.82613 13.6194 3.37679 13.6381 3.91813 13.6381C4.94479 13.6381 5.99013 13.6474 7.05413 13.6661C8.11813 13.6661 9.20079 13.6661 10.3021 13.6661V12.7421C8.56613 12.5554 7.28746 12.1541 6.46613 11.5381C5.66346 10.9034 5.26213 10.1288 5.26213 9.21411C5.26213 8.57944 5.43013 8.02878 5.76613 7.56211C6.10213 7.07678 6.56879 6.67544 7.16613 6.35811C7.78213 6.04077 8.50079 5.80744 9.32213 5.65811C10.1621 5.49011 11.0768 5.40611 12.0661 5.40611C12.4581 5.40611 12.8595 5.44344 13.2701 5.51811C13.6995 5.59278 14.0915 5.70477 14.4461 5.85411C14.8195 6.00344 15.1368 6.19011 15.3981 6.41411C15.6595 6.61944 15.8181 6.86211 15.8741 7.14211C16.7141 7.23544 17.3768 7.46878 17.8621 7.84211C18.3661 8.21544 18.6368 8.72878 18.6741 9.38211C18.7115 10.3154 18.3381 11.0714 17.5541 11.6501C16.7888 12.2288 15.6501 12.5928 14.1381 12.7421L14.0821 13.6661C15.4261 13.6661 16.7421 13.6568 18.0301 13.6381C19.3368 13.6194 20.6155 13.5728 21.8661 13.4981C22.3141 13.4794 22.6781 13.5821 22.9581 13.8061C23.2568 14.0301 23.4715 14.2914 23.6021 14.5901C23.7328 14.8888 23.7795 15.1874 23.7421 15.4861C23.7235 15.7661 23.6208 15.9621 23.4341 16.0741C23.2661 16.1674 23.0235 16.2141 22.7061 16.2141C22.4075 16.2141 22.0155 16.2048 21.5301 16.1861C21.0635 16.1488 20.5221 16.1114 19.9061 16.0741C19.2901 16.0181 18.5901 15.9808 17.8061 15.9621C16.9101 15.9434 16.0328 15.9248 15.1741 15.9061C14.3341 15.8874 13.4008 15.8874 12.3741 15.9061C11.3475 15.9061 10.1808 15.9248 8.87413 15.9621C7.56746 15.9994 6.01813 16.0461 4.22613 16.1021ZM16.4341 24.0261C16.6768 24.0074 16.9568 23.9794 17.2741 23.9421C17.5915 23.9048 17.8995 23.8674 18.1981 23.8301C18.5155 23.8114 18.8141 23.7834 19.0941 23.7461C19.3928 23.7088 19.6448 23.6714 19.8501 23.6341C20.1301 23.5968 20.3261 23.6248 20.4381 23.7181C20.5501 23.8114 20.5595 23.9701 20.4661 24.1941C20.3541 24.4368 20.2141 24.6981 20.0461 24.9781C19.8968 25.2581 19.7008 25.5194 19.4581 25.7621C19.2155 26.0234 18.9168 26.2474 18.5621 26.4341C18.2261 26.6208 17.8248 26.7328 17.3581 26.7701C15.7341 26.8821 14.1755 26.9288 12.6821 26.9101C11.1888 26.8914 9.57413 26.7888 7.83813 26.6021C6.96079 26.5088 6.29813 26.2754 5.85013 25.9021C5.40213 25.5474 5.06613 25.1274 4.84213 24.6421C4.69279 24.3248 4.58079 24.0261 4.50613 23.7461C4.43146 23.4661 4.34746 23.1394 4.25413 22.7661C4.04879 22.4488 3.95546 22.0661 3.97413 21.6181C4.01146 21.1514 4.13279 20.7874 4.33813 20.5261C5.06613 20.6381 5.94346 20.7128 6.97012 20.7501C8.01546 20.7688 9.09813 20.7781 10.2181 20.7781C11.3381 20.7781 12.4395 20.7688 13.5221 20.7501C14.6048 20.7314 15.5568 20.7221 16.3781 20.7221C16.4155 20.6288 16.4528 20.5168 16.4901 20.3861C16.5461 20.2554 16.5835 20.1248 16.6021 19.9941C16.6208 19.8448 16.5555 19.7514 16.4061 19.7141C16.2755 19.6581 16.1355 19.6301 15.9861 19.6301C15.8181 19.6488 15.5101 19.6581 15.0621 19.6581C14.6328 19.6581 14.1288 19.6581 13.5501 19.6581C12.9715 19.6581 12.3555 19.6581 11.7021 19.6581C11.0488 19.6581 10.4235 19.6674 9.82613 19.6861C9.24746 19.6861 8.72479 19.6861 8.25813 19.6861C7.81013 19.6861 7.49279 19.6954 7.30613 19.7141C7.00746 19.7328 6.67146 19.7608 6.29813 19.7981C5.92479 19.8168 5.59813 19.8261 5.31813 19.8261C4.87013 19.8261 4.52479 19.7048 4.28213 19.4621C4.05813 19.2008 3.89946 18.9114 3.80613 18.5941C3.71279 18.2768 3.64746 17.9781 3.61013 17.6981C3.59146 17.3994 3.57279 17.2128 3.55413 17.1381C4.03946 17.1754 4.57146 17.2034 5.15013 17.2221C5.72879 17.2408 6.31679 17.2408 6.91413 17.2221C7.25013 17.2221 7.76346 17.2128 8.45413 17.1941C9.14479 17.1754 9.91946 17.1661 10.7781 17.1661C11.6555 17.1474 12.5608 17.1381 13.4941 17.1381C14.4461 17.1194 15.3328 17.1101 16.1541 17.1101C16.9755 17.1101 17.6848 17.1288 18.2821 17.1661C18.8981 17.1848 19.2995 17.2221 19.4861 17.2781C19.8221 17.3901 20.0461 17.5954 20.1581 17.8941C20.1955 18.0621 20.1861 18.2674 20.1301 18.5101C20.0928 18.7528 20.0368 19.0048 19.9621 19.2661C19.8875 19.5088 19.8035 19.7328 19.7101 19.9381C19.6355 20.1434 19.5888 20.2928 19.5701 20.3861C19.5328 20.5541 19.4955 20.7688 19.4581 21.0301C19.4208 21.2728 19.3648 21.5248 19.2901 21.7861C19.2341 22.0474 19.1315 22.2994 18.9821 22.5421C18.8515 22.7661 18.6648 22.9434 18.4221 23.0741C17.9928 23.0181 17.3675 22.9808 16.5461 22.9621C15.7435 22.9248 14.8475 22.9061 13.8581 22.9061C12.8688 22.9061 11.8328 22.9154 10.7501 22.9341C9.68613 22.9528 8.69679 22.9714 7.78213 22.9901C7.78213 23.2888 7.84746 23.5128 7.97813 23.6621C8.12746 23.7928 8.41679 23.8954 8.84613 23.9701C9.27546 24.0448 9.79813 24.1008 10.4141 24.1381C11.0301 24.1754 11.6741 24.1941 12.3461 24.1941C13.0368 24.2128 13.7368 24.2034 14.4461 24.1661C15.1555 24.1474 15.8181 24.1008 16.4341 24.0261ZM19.5701 5.07011C18.8608 4.92077 18.0021 4.82744 16.9941 4.79011C16.0048 4.73411 14.9875 4.71544 13.9421 4.73411C12.9155 4.73411 11.9355 4.76211 11.0021 4.81811C10.0875 4.85544 9.35946 4.89278 8.81813 4.93011C8.03413 4.98611 7.36213 5.07011 6.80213 5.18211C6.26079 5.27544 5.72879 5.30344 5.20613 5.26611C3.45146 5.17277 2.70479 4.21144 2.96613 2.38211C4.03013 2.47544 5.17813 2.55011 6.41013 2.60611C7.66079 2.64344 8.93013 2.66211 10.2181 2.66211C10.2555 2.28877 10.1621 1.97144 9.93813 1.71011C9.73279 1.44877 9.36879 1.16878 8.84613 0.870109V0.590108C9.14479 0.440775 9.52746 0.319442 9.99413 0.226109C10.4795 0.114108 10.9648 0.0581079 11.4501 0.0581079C11.9355 0.0581079 12.3835 0.132775 12.7941 0.282108C13.2235 0.431442 13.5315 0.674109 13.7181 1.01011C13.8301 1.21544 13.8768 1.43944 13.8581 1.68211C13.8581 1.90611 13.7835 2.20477 13.6341 2.57811C14.8101 2.52211 15.8835 2.43811 16.8541 2.32611C17.3395 2.27011 17.7501 2.22344 18.0861 2.18611C18.4221 2.14877 18.6835 2.13944 18.8701 2.15811C19.4301 2.21411 19.8595 2.41011 20.1581 2.74611C20.4755 3.08211 20.6621 3.43677 20.7181 3.81011C20.7741 4.16477 20.7088 4.48211 20.5221 4.76211C20.3355 5.02344 20.0181 5.12611 19.5701 5.07011ZM12.9061 7.81411C11.9541 7.83278 11.1981 8.00078 10.6381 8.31811C10.0968 8.61678 9.84479 8.98078 9.88213 9.41011C9.91946 9.85811 10.1995 10.1848 10.7221 10.3901C11.2448 10.5768 11.9541 10.6608 12.8501 10.6421C14.6608 10.6048 15.5475 10.1194 15.5101 9.18611C15.4915 8.81278 15.2301 8.50478 14.7261 8.26211C14.2221 8.00078 13.6155 7.85144 12.9061 7.81411ZM29.0451 23.9981C28.3917 24.0354 27.8504 24.0074 27.4211 23.9141C26.9917 23.8394 26.6557 23.6528 26.4131 23.3541C26.1891 23.0554 26.0397 22.6448 25.9651 22.1221C25.9091 21.5994 25.9184 20.9274 25.9931 20.1061C27.6544 20.2741 29.2691 20.4048 30.8371 20.4981C32.4051 20.5914 33.9731 20.6474 35.5411 20.6661L35.5131 17.0261L32.0691 16.9421C31.0797 16.9234 30.3704 16.5501 29.9411 15.8221C29.5304 15.0754 29.3437 13.7874 29.3811 11.9581C29.1197 11.9394 28.9144 11.7714 28.7651 11.4541C28.6344 11.1368 28.5504 10.7821 28.5131 10.3901C28.4944 9.97944 28.5131 9.56878 28.5691 9.15811C28.6437 8.72878 28.7557 8.40211 28.9051 8.17811C29.8571 8.40211 30.8557 8.54211 31.9011 8.59811C32.9651 8.65411 34.0291 8.67278 35.0931 8.65411C36.1571 8.63544 37.2024 8.59811 38.2291 8.54211C39.2557 8.48611 40.2264 8.45811 41.1411 8.45811C41.1597 8.27144 41.1877 8.00078 41.2251 7.64611C41.2811 7.27278 41.2997 6.92744 41.2811 6.61011C41.2624 6.40478 41.1784 6.28344 41.0291 6.24611C40.8797 6.20878 40.6651 6.18078 40.3851 6.16211C39.8624 6.14344 39.3024 6.13411 38.7051 6.13411C38.1077 6.13411 37.5011 6.14344 36.8851 6.16211C36.2691 6.18078 35.6624 6.20878 35.0651 6.24611C34.4677 6.26477 33.9077 6.29277 33.3851 6.33011C33.2357 6.34878 33.0397 6.37677 32.7971 6.41411C32.5731 6.45144 32.3211 6.48878 32.0411 6.52611C31.7797 6.56344 31.5184 6.60078 31.2571 6.63811C30.9957 6.65677 30.7624 6.66611 30.5571 6.66611C30.1464 6.64744 29.8011 6.54478 29.5211 6.35811C29.2411 6.15278 29.0171 5.89144 28.8491 5.57411C28.6811 5.25677 28.5597 4.89277 28.4851 4.48211C28.4104 4.07144 28.3731 3.62344 28.3731 3.13811C29.3624 3.23144 30.3331 3.28744 31.2851 3.30611C32.2557 3.32478 33.2357 3.33411 34.2251 3.33411C35.5504 3.33411 36.8944 3.31544 38.2571 3.27811C39.6197 3.22211 40.9917 3.12878 42.3731 2.99811C44.1837 2.83011 45.2011 3.28744 45.4251 4.37011C45.4811 4.61277 45.4904 4.89277 45.4531 5.21011C45.4157 5.52744 45.3597 5.84478 45.2851 6.16211C45.2104 6.47944 45.1264 6.77811 45.0331 7.05811C44.9584 7.31944 44.9117 7.51544 44.8931 7.64611C44.8371 7.90744 44.7997 8.23411 44.7811 8.62611C44.7624 8.99944 44.7251 9.38211 44.6691 9.77411C44.6131 10.1661 44.5197 10.5394 44.3891 10.8941C44.2771 11.2488 44.0904 11.5194 43.8291 11.7061C43.3437 11.6501 42.6997 11.6034 41.8971 11.5661C41.1131 11.5288 40.2357 11.5101 39.2651 11.5101C38.2944 11.4914 37.2677 11.5008 36.1851 11.5381C35.1211 11.5568 34.0571 11.5941 32.9931 11.6501C32.8811 12.7514 33.0024 13.4141 33.3571 13.6381C33.5251 13.7874 33.7957 13.8714 34.1691 13.8901C34.5611 13.9088 35.0091 13.9274 35.5131 13.9461C37.3424 14.0021 39.0597 13.9741 40.6651 13.8621C42.2704 13.7314 43.8477 13.5074 45.3971 13.1901C45.6211 13.7501 45.7144 14.2541 45.6771 14.7021C45.6397 15.1501 45.5091 15.5328 45.2851 15.8501C45.0611 16.1674 44.7624 16.4194 44.3891 16.6061C44.0157 16.7928 43.5957 16.8954 43.1291 16.9141C42.5131 16.9514 41.8877 16.9794 41.2531 16.9981C40.6371 16.9981 40.0024 17.0074 39.3491 17.0261C39.3304 17.7541 39.3117 18.4634 39.2931 19.1541C39.2744 19.8261 39.2651 20.3208 39.2651 20.6381C40.7771 20.6008 42.2891 20.5354 43.8011 20.4421C45.3317 20.3488 46.9091 20.2181 48.5331 20.0501C49.1304 21.3941 49.2331 22.4208 48.8411 23.1301C48.4491 23.8208 47.5717 24.0914 46.2091 23.9421C43.3717 23.6434 40.5437 23.5314 37.7251 23.6061C34.9064 23.6808 32.0131 23.8114 29.0451 23.9981ZM71.476 4.65011C71.476 4.68744 71.4667 4.72478 71.448 4.76211C71.448 4.79944 71.448 4.83678 71.448 4.87411C71.7653 4.81811 72.0827 4.76211 72.4 4.70611C72.7173 4.63144 73.0253 4.55677 73.324 4.48211C73.492 4.44477 73.6693 4.43544 73.856 4.45411C74.0427 4.47277 74.2013 4.52877 74.332 4.62211C74.7053 4.92078 74.9573 5.21011 75.088 5.49011C75.2187 5.75144 75.2653 6.04077 75.228 6.35811C75.2093 6.47011 75.172 6.59144 75.116 6.72211C75.06 6.85277 74.9853 6.98344 74.892 7.11411C74.8173 7.22611 74.7147 7.32877 74.584 7.42211C74.4533 7.49677 74.3133 7.52478 74.164 7.50611C73.6787 7.46877 73.1933 7.44077 72.708 7.42211C72.2413 7.40344 71.7653 7.38478 71.28 7.36611C71.2613 7.75811 71.2427 8.15011 71.224 8.54211C71.224 8.93411 71.224 9.32611 71.224 9.71811C71.5973 9.66211 71.9613 9.59678 72.316 9.52211C72.6707 9.44744 73.0067 9.37278 73.324 9.29811C73.492 9.26078 73.6693 9.25144 73.856 9.27011C74.0427 9.28878 74.2013 9.34478 74.332 9.43811C74.7053 9.73678 74.9573 10.0261 75.088 10.3061C75.2187 10.5674 75.2653 10.8568 75.228 11.1741C75.2093 11.2861 75.172 11.4074 75.116 11.5381C75.06 11.6688 74.9853 11.7994 74.892 11.9301C74.8173 12.0421 74.7147 12.1448 74.584 12.2381C74.4533 12.3128 74.3133 12.3408 74.164 12.3221C73.6787 12.2848 73.1933 12.2568 72.708 12.2381C72.2413 12.2194 71.7653 12.2008 71.28 12.1821L71.336 12.8261C71.3733 13.5728 71.2147 14.1794 70.86 14.6461C70.524 15.1128 70.0947 15.4301 69.572 15.5981C69.292 15.6914 68.9467 15.7568 68.536 15.7941C68.1253 15.8314 67.7613 15.8408 67.444 15.8221C67.5 15.6168 67.5467 15.3181 67.584 14.9261C67.6213 14.5341 67.6307 14.1701 67.612 13.8341L67.528 12.2381C67.0613 12.7234 66.492 13.1248 65.82 13.4421C65.148 13.7408 64.4387 13.9461 63.692 14.0581C62.964 14.1701 62.348 14.2448 61.844 14.2821C61.34 14.3008 60.864 14.3101 60.416 14.3101C59.968 14.2914 59.492 14.2821 58.988 14.2821C58.5027 14.2634 57.9053 14.2821 57.196 14.3381C56.5427 14.3754 55.9453 14.4408 55.404 14.5341C54.8813 14.6088 54.4053 14.6928 53.976 14.7861C53.696 14.8421 53.4253 14.8234 53.164 14.7301C52.9027 14.6368 52.7347 14.4874 52.66 14.2821C52.604 14.1514 52.5387 13.9834 52.464 13.7781C52.3893 13.5541 52.3147 13.3301 52.24 13.1061C52.1653 12.8821 52.1093 12.6581 52.072 12.4341C52.0347 12.1914 52.0253 11.9861 52.044 11.8181C52.044 11.7061 52.1 11.5288 52.212 11.2861C52.324 11.0434 52.4547 10.9034 52.604 10.8661C52.6413 9.87677 52.6413 9.08344 52.604 8.48611C52.5667 7.87011 52.52 7.29144 52.464 6.75011C52.4267 6.43277 52.3707 6.09677 52.296 5.74211C52.2213 5.38744 52.128 5.05144 52.016 4.73411C51.904 4.39811 51.7733 4.10878 51.624 3.86611C51.4747 3.60478 51.3067 3.41811 51.12 3.30611V3.05411C51.4 2.92344 51.7453 2.81144 52.156 2.71811C52.5667 2.62478 52.9867 2.58744 53.416 2.60611C53.8453 2.62477 54.256 2.70877 54.648 2.85811C55.04 3.00744 55.3667 3.25011 55.628 3.58611C56.132 4.23944 56.412 5.25677 56.468 6.63811C56.5427 8.00078 56.4773 9.64344 56.272 11.5661C57.0747 11.5848 57.9147 11.5941 58.792 11.5941C59.688 11.5941 60.612 11.5568 61.564 11.4821C62.516 11.3888 63.4867 11.2488 64.476 11.0621C65.484 10.8754 66.492 10.6141 67.5 10.2781V10.0541C67.5 9.04611 67.5 8.08478 67.5 7.17011C67.5 6.23677 67.5093 5.29411 67.528 4.34211C67.5467 3.50211 67.4813 2.84878 67.332 2.38211C67.2013 1.89678 66.94 1.56078 66.548 1.37411L66.688 1.03811C67.8453 1.03811 68.7413 1.10344 69.376 1.23411C70.0107 1.34611 70.4773 1.58878 70.776 1.96211C71.0373 2.26077 71.2333 2.61544 71.364 3.02611C71.4947 3.41811 71.532 3.95944 71.476 4.65011ZM69.74 26.2381C68.8813 26.1261 67.9573 26.0328 66.968 25.9581C65.9973 25.9021 65.0267 25.8741 64.056 25.8741C63.104 25.8741 62.1893 25.8928 61.312 25.9301C60.4347 25.9861 59.6693 26.0701 59.016 26.1821C58.792 26.3501 58.5213 26.4714 58.204 26.5461C57.9053 26.6394 57.6253 26.7048 57.364 26.7421C56.8227 26.7794 56.4493 26.6768 56.244 26.4341C56.0573 26.1914 55.964 25.7994 55.964 25.2581C55.964 24.5674 55.9267 23.8674 55.852 23.1581C55.796 22.4488 55.7213 21.7581 55.628 21.0861C55.5533 20.4141 55.4507 19.7794 55.32 19.1821C55.208 18.5661 55.096 18.0154 54.984 17.5301C55.1147 17.2314 55.3387 16.9981 55.656 16.8301C55.992 16.6434 56.3467 16.5314 56.72 16.4941C57.0933 16.4381 57.448 16.4474 57.784 16.5221C58.1387 16.5968 58.4 16.7461 58.568 16.9701C58.5867 17.0261 58.596 17.0821 58.596 17.1381C58.6147 17.1754 58.624 17.2314 58.624 17.3061C59.0907 17.2501 59.66 17.1941 60.332 17.1381C61.004 17.0821 61.7133 17.0354 62.46 16.9981C63.2067 16.9608 63.972 16.9328 64.756 16.9141C65.54 16.8768 66.2773 16.8674 66.968 16.8861C67.6773 16.8861 68.312 16.9141 68.872 16.9701C69.4507 17.0074 69.908 17.0728 70.244 17.1661C70.6547 17.3154 70.916 17.5954 71.028 18.0061C71.1027 18.2861 71.1307 18.5661 71.112 18.8461C71.0933 19.1261 71.056 19.3968 71 19.6581C70.944 19.9194 70.8787 20.1808 70.804 20.4421C70.748 20.6848 70.72 20.8994 70.72 21.0861C70.72 21.3474 70.7013 21.7208 70.664 22.2061C70.6453 22.6914 70.5987 23.1954 70.524 23.7181C70.468 24.2408 70.3747 24.7354 70.244 25.2021C70.132 25.6688 69.964 26.0141 69.74 26.2381ZM59.156 19.9941C59.1933 20.2741 59.24 20.7408 59.296 21.3941C59.3707 22.0288 59.4267 22.7008 59.464 23.4101C60.696 23.2234 61.9373 23.1208 63.188 23.1021C64.4387 23.0834 65.6707 23.1394 66.884 23.2701C66.94 22.9714 66.9867 22.5608 67.024 22.0381C67.0613 21.4968 67.0613 20.9834 67.024 20.4981C67.0053 20.2928 66.9493 20.1341 66.856 20.0221C66.7627 19.8914 66.6227 19.8168 66.436 19.7981C66.1747 19.7981 65.7453 19.7981 65.148 19.7981C64.5507 19.7981 63.8973 19.8074 63.188 19.8261C62.4787 19.8448 61.76 19.8728 61.032 19.9101C60.304 19.9288 59.6787 19.9568 59.156 19.9941ZM96.6869 4.65011C96.6869 4.68744 96.6776 4.72478 96.6589 4.76211C96.6589 4.79944 96.6589 4.83678 96.6589 4.87411C96.9763 4.81811 97.2936 4.76211 97.6109 4.70611C97.9283 4.63144 98.2363 4.55677 98.5349 4.48211C98.7029 4.44477 98.8803 4.43544 99.0669 4.45411C99.2536 4.47277 99.4123 4.52877 99.5429 4.62211C99.9163 4.92078 100.168 5.21011 100.299 5.49011C100.43 5.75144 100.476 6.04077 100.439 6.35811C100.42 6.47011 100.383 6.59144 100.327 6.72211C100.271 6.85277 100.196 6.98344 100.103 7.11411C100.028 7.22611 99.9256 7.32877 99.7949 7.42211C99.6643 7.49677 99.5243 7.52478 99.3749 7.50611C98.8896 7.46877 98.4043 7.44077 97.9189 7.42211C97.4523 7.40344 96.9763 7.38478 96.4909 7.36611C96.4723 7.75811 96.4536 8.15011 96.4349 8.54211C96.4349 8.93411 96.4349 9.32611 96.4349 9.71811C96.8083 9.66211 97.1723 9.59678 97.5269 9.52211C97.8816 9.44744 98.2176 9.37278 98.5349 9.29811C98.7029 9.26078 98.8803 9.25144 99.0669 9.27011C99.2536 9.28878 99.4123 9.34478 99.5429 9.43811C99.9163 9.73678 100.168 10.0261 100.299 10.3061C100.43 10.5674 100.476 10.8568 100.439 11.1741C100.42 11.2861 100.383 11.4074 100.327 11.5381C100.271 11.6688 100.196 11.7994 100.103 11.9301C100.028 12.0421 99.9256 12.1448 99.7949 12.2381C99.6643 12.3128 99.5243 12.3408 99.3749 12.3221C98.8896 12.2848 98.4043 12.2568 97.9189 12.2381C97.4523 12.2194 96.9763 12.2008 96.4909 12.1821L96.5469 12.8261C96.5843 13.5728 96.4256 14.1794 96.0709 14.6461C95.7349 15.1128 95.3056 15.4301 94.7829 15.5981C94.5029 15.6914 94.1576 15.7568 93.7469 15.7941C93.3363 15.8314 92.9723 15.8408 92.6549 15.8221C92.7109 15.6168 92.7576 15.3181 92.7949 14.9261C92.8323 14.5341 92.8416 14.1701 92.8229 13.8341L92.7389 12.2381C92.2723 12.7234 91.7029 13.1248 91.0309 13.4421C90.3589 13.7408 89.6496 13.9461 88.9029 14.0581C88.1749 14.1701 87.5589 14.2448 87.0549 14.2821C86.5509 14.3008 86.0749 14.3101 85.6269 14.3101C85.1789 14.2914 84.7029 14.2821 84.1989 14.2821C83.7136 14.2634 83.1163 14.2821 82.4069 14.3381C81.7536 14.3754 81.1563 14.4408 80.6149 14.5341C80.0923 14.6088 79.6163 14.6928 79.1869 14.7861C78.9069 14.8421 78.6363 14.8234 78.3749 14.7301C78.1136 14.6368 77.9456 14.4874 77.8709 14.2821C77.8149 14.1514 77.7496 13.9834 77.6749 13.7781C77.6003 13.5541 77.5256 13.3301 77.4509 13.1061C77.3763 12.8821 77.3203 12.6581 77.2829 12.4341C77.2456 12.1914 77.2363 11.9861 77.2549 11.8181C77.2549 11.7061 77.3109 11.5288 77.4229 11.2861C77.5349 11.0434 77.6656 10.9034 77.8149 10.8661C77.8523 9.87677 77.8523 9.08344 77.8149 8.48611C77.7776 7.87011 77.7309 7.29144 77.6749 6.75011C77.6376 6.43277 77.5816 6.09677 77.5069 5.74211C77.4323 5.38744 77.3389 5.05144 77.2269 4.73411C77.1149 4.39811 76.9843 4.10878 76.8349 3.86611C76.6856 3.60478 76.5176 3.41811 76.3309 3.30611V3.05411C76.6109 2.92344 76.9563 2.81144 77.3669 2.71811C77.7776 2.62478 78.1976 2.58744 78.6269 2.60611C79.0563 2.62477 79.4669 2.70877 79.8589 2.85811C80.2509 3.00744 80.5776 3.25011 80.8389 3.58611C81.3429 4.23944 81.6229 5.25677 81.6789 6.63811C81.7536 8.00078 81.6883 9.64344 81.4829 11.5661C82.2856 11.5848 83.1256 11.5941 84.0029 11.5941C84.8989 11.5941 85.8229 11.5568 86.7749 11.4821C87.7269 11.3888 88.6976 11.2488 89.6869 11.0621C90.6949 10.8754 91.7029 10.6141 92.7109 10.2781V10.0541C92.7109 9.04611 92.7109 8.08478 92.7109 7.17011C92.7109 6.23677 92.7203 5.29411 92.7389 4.34211C92.7576 3.50211 92.6923 2.84878 92.5429 2.38211C92.4123 1.89678 92.1509 1.56078 91.7589 1.37411L91.8989 1.03811C93.0563 1.03811 93.9523 1.10344 94.5869 1.23411C95.2216 1.34611 95.6883 1.58878 95.9869 1.96211C96.2483 2.26077 96.4443 2.61544 96.5749 3.02611C96.7056 3.41811 96.7429 3.95944 96.6869 4.65011ZM94.9509 26.2381C94.0923 26.1261 93.1683 26.0328 92.1789 25.9581C91.2083 25.9021 90.2376 25.8741 89.2669 25.8741C88.3149 25.8741 87.4003 25.8928 86.5229 25.9301C85.6456 25.9861 84.8803 26.0701 84.2269 26.1821C84.0029 26.3501 83.7323 26.4714 83.4149 26.5461C83.1163 26.6394 82.8363 26.7048 82.5749 26.7421C82.0336 26.7794 81.6603 26.6768 81.4549 26.4341C81.2683 26.1914 81.1749 25.7994 81.1749 25.2581C81.1749 24.5674 81.1376 23.8674 81.0629 23.1581C81.0069 22.4488 80.9323 21.7581 80.8389 21.0861C80.7643 20.4141 80.6616 19.7794 80.5309 19.1821C80.4189 18.5661 80.3069 18.0154 80.1949 17.5301C80.3256 17.2314 80.5496 16.9981 80.8669 16.8301C81.2029 16.6434 81.5576 16.5314 81.9309 16.4941C82.3043 16.4381 82.6589 16.4474 82.9949 16.5221C83.3496 16.5968 83.6109 16.7461 83.7789 16.9701C83.7976 17.0261 83.8069 17.0821 83.8069 17.1381C83.8256 17.1754 83.8349 17.2314 83.8349 17.3061C84.3016 17.2501 84.8709 17.1941 85.5429 17.1381C86.2149 17.0821 86.9243 17.0354 87.6709 16.9981C88.4176 16.9608 89.1829 16.9328 89.9669 16.9141C90.7509 16.8768 91.4883 16.8674 92.1789 16.8861C92.8883 16.8861 93.5229 16.9141 94.0829 16.9701C94.6616 17.0074 95.1189 17.0728 95.4549 17.1661C95.8656 17.3154 96.1269 17.5954 96.2389 18.0061C96.3136 18.2861 96.3416 18.5661 96.3229 18.8461C96.3043 19.1261 96.2669 19.3968 96.2109 19.6581C96.1549 19.9194 96.0896 20.1808 96.0149 20.4421C95.9589 20.6848 95.9309 20.8994 95.9309 21.0861C95.9309 21.3474 95.9123 21.7208 95.8749 22.2061C95.8563 22.6914 95.8096 23.1954 95.7349 23.7181C95.6789 24.2408 95.5856 24.7354 95.4549 25.2021C95.3429 25.6688 95.1749 26.0141 94.9509 26.2381ZM84.3669 19.9941C84.4043 20.2741 84.4509 20.7408 84.5069 21.3941C84.5816 22.0288 84.6376 22.7008 84.6749 23.4101C85.9069 23.2234 87.1483 23.1208 88.3989 23.1021C89.6496 23.0834 90.8816 23.1394 92.0949 23.2701C92.1509 22.9714 92.1976 22.5608 92.2349 22.0381C92.2723 21.4968 92.2723 20.9834 92.2349 20.4981C92.2163 20.2928 92.1603 20.1341 92.0669 20.0221C91.9736 19.8914 91.8336 19.8168 91.6469 19.7981C91.3856 19.7981 90.9563 19.7981 90.3589 19.7981C89.7616 19.7981 89.1083 19.8074 88.3989 19.8261C87.6896 19.8448 86.9709 19.8728 86.2429 19.9101C85.5149 19.9288 84.8896 19.9568 84.3669 19.9941Z" fill="url(#paint0_linear_169_3227)"/>
<defs>
<linearGradient id="paint0_linear_169_3227" x1="143.5" y1="51.9998" x2="-43" y2="-53.5002" gradientUnits="userSpaceOnUse">
<stop stop-color="#FF3945"/>
<stop offset="0.786458" stop-color="#FF9052"/>
</linearGradient>
</defs>
</svg>
