<svg width="133" height="111" viewBox="0 0 133 111" fill="none" xmlns="http://www.w3.org/2000/svg">
<path fill-rule="evenodd" clip-rule="evenodd" d="M16.6847 18.375C12.4865 16.6344 8.82948 18.1308 6.33213 21.3368L0.0671043 36.607C-0.115466 37.0557 0.0873268 37.5671 0.525871 37.7639C0.964414 37.9607 1.48128 37.7723 1.69515 37.3376L8.98299 22.5265L11.1698 23.5079L4.78229 38.7231C4.59581 39.1701 4.70865 39.6411 5.03755 39.7887C5.36646 39.9363 5.79337 39.7075 6.00333 39.2711L13.1578 24.4001L15.3446 25.3815L8.95711 40.5967C8.77063 41.0436 8.88346 41.5147 9.21237 41.6623C9.54128 41.8099 9.96818 41.5811 10.1781 41.1447L17.3326 26.2737L19.5194 27.2551L13.2337 42.516C13.0505 42.9644 13.2382 43.469 13.6584 43.6576C14.0785 43.8462 14.5803 43.651 14.7935 43.216L22.1701 28.4447L22.1498 28.4356C22.7118 25.1325 21.8372 21.9922 19.2365 19.875C27.4462 9.94939 39.8435 4 54.1323 4C76.5531 4 93.7378 19.7151 95.0606 40.4994C95.1828 42.4204 96.7174 44.0085 98.6423 44.0055C100.56 44.0025 102.116 42.4204 101.923 40.513C99.5256 16.8307 77.7265 0 54.1323 0C39.0328 0 25.5502 7.15938 16.6847 18.375ZM26.2545 41.6077L27.0735 43H35.7107C42.8733 43 49.8235 41.0323 56.7663 39.0668L56.7664 39.0668L56.7664 39.0667L56.7665 39.0667L56.7666 39.0667L56.7667 39.0667L56.7668 39.0666L56.7669 39.0666L56.767 39.0666L56.7671 39.0666L56.7672 39.0665L56.7673 39.0665L56.7674 39.0665L56.7675 39.0665L56.7675 39.0665L56.7676 39.0664C59.5281 38.2849 62.2873 37.5037 65.0583 36.8467C70.4847 35.5601 76.1612 35.348 81.7622 36.2815L83.0735 36.5L83.1252 36.3576C83.2188 36.1002 83.291 35.8405 83.3428 35.5805C84.1702 31.424 79.9591 24 75.7211 24C74.535 24 73.6172 22.9857 73.0715 21.9326C72.3227 20.4875 70.8134 19.5 69.0735 19.5C67.2446 19.5 65.6701 18.3064 64.2619 17.1394C62.221 15.4481 59.2698 15.0481 56.7702 16.394C56.6474 16.4602 56.4994 16.4593 56.3748 16.3966C52.7609 14.5801 48.3371 15.8215 46.2044 19.2873C46.1292 19.4095 45.9755 19.4573 45.8417 19.4054C42.129 17.9656 37.9351 19.9152 36.6651 23.725C36.6104 23.8892 36.4564 23.9988 36.2834 24.0064C32.8281 24.1581 30.0735 27.0074 30.0735 30.5C30.0735 31.6754 29.2335 32.6526 28.2427 33.2849C25.5482 35.0047 24.5179 38.6555 26.2545 41.6077ZM16.4064 72.1555C20.2426 69.4822 20.7036 64.6114 18.608 59.9415C16.2556 54.6992 10.1388 48.5011 4.88932 50.8568C-0.360169 53.2125 0.404543 61.7873 2.75701 67.0296C4.95215 71.9214 9.00215 74.9642 13.7992 73.4354C22.4407 87.0272 37.3184 96.0001 54.2224 96.0001C77.8167 96.0001 99.6157 79.1694 102.013 55.4871C102.206 53.5797 100.65 51.9976 98.7325 51.9946C96.8076 51.9916 95.273 53.5797 95.1507 55.5007C93.828 76.285 76.6433 92.0001 54.2224 92.0001C38.1192 92.0001 24.4183 84.4438 16.4064 72.1555ZM96.1556 47.2796C96.2307 47.4182 96.2733 47.5769 96.2733 47.7454C96.2734 48.2819 95.8417 48.7185 95.3053 48.7246L13.0097 49.6598C11.9439 49.6719 11.0735 48.8113 11.0735 47.7454C11.0735 46.6796 11.9439 45.819 13.0097 45.8311L54.2639 46.2999C56.595 42.68 64.983 40 74.9734 40C85.8459 40 94.8206 43.1741 96.1556 47.2796ZM97.5545 102.859C98.0353 102.864 98.4224 103.255 98.4224 103.736C98.4224 104.217 98.0353 104.608 97.5545 104.613L14.9584 105.454C14.0025 105.464 13.2225 104.692 13.2225 103.736C13.2225 102.78 14.0025 102.008 14.9584 102.018L97.5545 102.859ZM98.4224 108.944C98.4224 108.463 98.0353 108.072 97.5545 108.067L14.9584 107.226C14.0025 107.216 13.2225 107.988 13.2225 108.944C13.2225 109.9 14.0025 110.672 14.9584 110.662L97.5545 109.821C98.0353 109.816 98.4224 109.425 98.4224 108.944ZM112.276 73.6457C109.311 72.0597 107.376 68.7082 106.294 65.1057C104.879 60.3937 104.588 54.3337 105.622 47.9991C106.657 41.6644 108.859 36.0114 111.699 31.9942C114.432 28.1296 118.317 25.0708 122.734 25.7919C127.151 26.5129 129.862 30.6484 131.223 35.1813C132.639 39.8932 132.929 45.9532 131.895 52.2879C130.861 58.6225 128.659 64.2755 125.818 68.2928C123.598 71.4329 120.617 74.041 117.208 74.5217L112.432 94.5791C112.112 95.9222 110.764 96.7518 109.421 96.432C108.078 96.1122 107.248 94.7641 107.568 93.421L112.276 73.6457ZM63.8615 63.5798C62.8548 64.2269 62.5001 64.9408 62.5001 65.5C62.5001 66.0592 62.8548 66.7731 63.8615 67.4202C64.8521 68.0571 66.3112 68.5 68.0001 68.5C69.689 68.5 71.1481 68.0571 72.1387 67.4202C73.1454 66.7731 73.5001 66.0592 73.5001 65.5C73.5001 64.9408 73.1454 64.2269 72.1387 63.5798C71.1481 62.943 69.689 62.5 68.0001 62.5C66.3112 62.5 64.8521 62.943 63.8615 63.5798ZM62.2392 61.0563C63.7821 60.0644 65.823 59.5 68.0001 59.5C70.1772 59.5 72.2181 60.0644 73.761 61.0563C75.2878 62.0378 76.5001 63.5739 76.5001 65.5C76.5001 67.4261 75.2878 68.9622 73.761 69.9437C72.2181 70.9356 70.1772 71.5 68.0001 71.5C65.823 71.5 63.7821 70.9356 62.2392 69.9437C60.7124 68.9622 59.5001 67.4261 59.5001 65.5C59.5001 63.5739 60.7124 62.0378 62.2392 61.0563ZM110.557 48.8046C111.496 43.0529 113.468 38.1536 115.782 34.8807C118.204 31.4551 120.453 30.4857 121.928 30.7265C123.404 30.9674 125.228 32.6016 126.435 36.6197C127.588 40.4586 127.9 45.7306 126.961 51.4823C126.022 57.234 124.05 62.1333 121.736 65.4062C119.314 68.8319 117.065 69.8012 115.589 69.5604C114.114 69.3196 112.29 67.6853 111.083 63.6673C109.93 59.8284 109.618 54.5563 110.557 48.8046Z" fill="#D9D9D9"/>
</svg>
