<svg xmlns="http://www.w3.org/2000/svg">
    <symbol id="icon-heart" viewBox="0 0 20 20">
        <path stroke="strokeColor" stroke-linecap="round" stroke-linejoin="round" stroke-width="1.5" d="M16.92 4.013a4.301 4.301 0 0 0-1.397-.951 4.235 4.235 0 0 0-3.296 0 4.3 4.3 0 0 0-1.397.951L10 4.86l-.83-.846a4.266 4.266 0 0 0-3.045-1.285A4.266 4.266 0 0 0 3.08 4.013a4.432 4.432 0 0 0-1.262 3.104A4.43 4.43 0 0 0 3.08 10.22l.83.846L10 17.273l6.09-6.207.83-.846c.4-.407.718-.89.934-1.423a4.46 4.46 0 0 0 0-3.36 4.395 4.395 0 0 0-.934-1.424z" />
    </symbol>
    <symbol id="icon-home" viewBox="0 0 24 24">
        <path stroke="#767676" stroke-linecap="round" stroke-linejoin="round" stroke-width="2" d="M3 9l9-7 9 7v11a2 2 0 0 1-2 2H5a2 2 0 0 1-2-2V9z" />
        <path stroke="#767676" stroke-linecap="round" stroke-linejoin="round" stroke-width="2" d="M9 21v-9h6v9" />
    </symbol>
    <symbol id="icon-message-circle" viewBox="0 0 20 20">
        <path stroke="currentColor" stroke-linecap="round" stroke-linejoin="round" stroke-width="1.5" d="M17.5 9.583a6.983 6.983 0 0 1-.75 3.167 7.084 7.084 0 0 1-6.333 3.917 6.983 6.983 0 0 1-3.167-.75L2.5 17.5l1.583-4.75a6.983 6.983 0 0 1-.75-3.167A7.083 7.083 0 0 1 7.25 3.25a6.983 6.983 0 0 1 3.167-.75h.416A7.066 7.066 0 0 1 17.5 9.167v.416z" />
    </symbol>
    <symbol id="icon-edit" viewBox="0 0 24 24">
        <rect width="18" height="18" x="3" y="3" stroke="#767676" stroke-width="2" rx="3" />
        <path stroke="#767676" stroke-linecap="round" stroke-width="2" d="M12 8v8m-4-4h8" />
    </symbol>
    <symbol id="icon-edit-fill" viewBox="0 0 24 24">
        <rect width="18" height="18" x="3" y="3" stroke="#FF644B" stroke-width="2" rx="3" fill="#FF644B" />
        <path stroke="#FFFFFF" stroke-linecap="round" stroke-width="2" d="M12 8v8m-4-4h8" />
    </symbol>
    <symbol id="icon-user" viewBox="0 0 24 24">
        <path stroke="currentColor" stroke-linecap="round" stroke-linejoin="round" stroke-width="2" d="M20 22v-3a4 4 0 0 0-4-4H8a4 4 0 0 0-4 4v3" />
        <path stroke="currentColor" stroke-linecap="round" stroke-width="2" d="M4 22h16" />
        <path stroke="currentColor" stroke-linecap="round" stroke-linejoin="round" stroke-width="2" d="M12 11a4 4 0 1 0 0-8 4 4 0 0 0 0 8z" />
    </symbol>
    <symbol id="icon-home-fill" viewBox="0 0 24 24">
        <path fill="#286140" stroke="#286140" stroke-linecap="round" stroke-linejoin="round" stroke-width="2" d="M3 9l9-7 9 7v11a2 2 0 0 1-2 2H5a2 2 0 0 1-2-2V9z" />
        <path fill="#fff" d="M8 21V11h8v10" />
        <path stroke="#286140" stroke-linecap="round" stroke-linejoin="round" stroke-width="2" d="M8 21V11h8v10" />
    </symbol>
    <symbol id="icon-search" viewBox="0 0 24 24">
        <path stroke="#767676" stroke-linecap="round" stroke-linejoin="round" stroke-width="2" d="M11 19a8 8 0 1 0 0-16 8 8 0 0 0 0 16zm10 2l-4.35-4.35" />
    </symbol>
    <symbol id="icon-arrow-left" viewBox="0 0 24 24">
        <path stroke="#000" stroke-linecap="round" stroke-linejoin="round" stroke-width="2" d="M17.417 11H4.583M11 17.417L4.583 11 11 4.583" />
    </symbol>
    <symbol id="icon-more-vertical" viewBox="0 0 24 24">
        <path fill="#767676" stroke="strokeColor" stroke-linecap="round" stroke-linejoin="round" d="M12 13a1 1 0 1 0 0-2 1 1 0 0 0 0 2zm0-7a1 1 0 1 0 0-2 1 1 0 0 0 0 2zm0 14a1 1 0 1 0 0-2 1 1 0 0 0 0 2z" />
    </symbol>
    <symbol id="img-button" viewBox="0 0 36 36">
        <circle cx="18" cy="18" r="18" fill="#C4C4C4" />
        <path stroke="#fff" stroke-linecap="round" stroke-linejoin="round" stroke-width="1.5" d="M24.417 9.75H11.583c-1.012 0-1.833.82-1.833 1.833v12.834c0 1.012.82 1.833 1.833 1.833h12.834c1.012 0 1.833-.82 1.833-1.833V11.583c0-1.012-.82-1.833-1.833-1.833z" />
        <path stroke="#fff" stroke-linecap="round" stroke-linejoin="round" stroke-width="1.5" d="M14.792 16.166a1.375 1.375 0 1 0 0-2.75 1.375 1.375 0 0 0 0 2.75zM26.25 20.75l-4.583-4.584L11.583 26.25" />
    </symbol>
    
    <symbol id="img-button-1" viewBox="0 0 36 36">
        <circle cx="18" cy="18" r="18" fill="#FF644B" />
        <path stroke="#fff" stroke-linecap="round" stroke-linejoin="round" stroke-width="1.5" d="M24.417 9.75H11.583c-1.012 0-1.833.82-1.833 1.833v12.834c0 1.012.82 1.833 1.833 1.833h12.834c1.012 0 1.833-.82 1.833-1.833V11.583c0-1.012-.82-1.833-1.833-1.833z" />
        <path stroke="#fff" stroke-linecap="round" stroke-linejoin="round" stroke-width="1.5" d="M14.792 16.166a1.375 1.375 0 1 0 0-2.75 1.375 1.375 0 0 0 0 2.75zM26.25 20.75l-4.583-4.584L11.583 26.25" />
    </symbol>
    <symbol id="icon-share" viewBox="0 0 20 20">
        <path stroke="#767676" stroke-linecap="round" stroke-linejoin="round" stroke-width="1.5" d="M14 6.667a2.5 2.5 0 1 0 0-5 2.5 2.5 0 0 0 0 5zM4 12.5a2.5 2.5 0 1 0 0-5 2.5 2.5 0 0 0 0 5zm10 5.834a2.5 2.5 0 1 0 0-5 2.5 2.5 0 0 0 0 5zm-7.842-7.076l5.692 3.317m-.009-9.15L6.159 8.74" />
    </symbol>
    <symbol id="upload-file" viewBox="0 0 50 50">
        <circle cx="25" cy="25" r="25" fill="#286140" />
        <path stroke="#fff" stroke-linecap="round" stroke-linejoin="round" stroke-width="1.5" d="M33.167 14.5H16.833a2.333 2.333 0 0 0-2.333 2.333v16.334a2.333 2.333 0 0 0 2.333 2.333h16.334a2.333 2.333 0 0 0 2.333-2.333V16.833a2.333 2.333 0 0 0-2.333-2.333z" />
        <path stroke="#fff" stroke-linecap="round" stroke-linejoin="round" stroke-width="1.5" d="M20.917 22.666a1.75 1.75 0 1 0 0-3.5 1.75 1.75 0 0 0 0 3.5zM35.5 28.5l-5.833-5.834L16.833 35.5" />
    </symbol>
    <symbol id="icon-message-circle-1" viewBox="0 0 24 24">
        <path stroke="#767676" stroke-linecap="round" stroke-linejoin="round" stroke-width="2" d="M21 11.5a8.38 8.38 0 0 1-.9 3.8 8.5 8.5 0 0 1-7.6 4.7 8.379 8.379 0 0 1-3.8-.9L3 21l1.9-5.7a8.38 8.38 0 0 1-.9-3.8 8.5 8.5 0 0 1 4.7-7.6 8.38 8.38 0 0 1 3.8-.9h.5a8.48 8.48 0 0 1 8 8v.5z" />
    </symbol>
    <symbol xmlns="http://www.w3.org/2000/svg" id="icon-message-circle-2" viewBox="0 0 359 359"><path fill="#fff" d="M179.5 346c91.403 0 165.5-74.321 165.5-166 0-91.68-74.097-166-165.5-166S14 88.32 14 180c0 31.07 8.51 60.147 23.32 85.012l-16.04 72.905 65.129-20.648C112.93 335.4 144.98 346 179.5 346z"/><path fill="#767676" d="M161 1.133c-126.733 19.467-195.467 141.8-143.2 255l5.133 11.134-9.266 31.066c-11.6 38.734-11.734 43.067-1.4 51.734 7.333 6.2 11 5.866 46.466-4.267l32.4-9.2 10.934 5c77.2 35.667 169.333 13.2 220.066-53.667C400.867 184 346.333 34.4 219 4.8c-13.733-3.2-47.267-5.267-58-3.667zM205.867 27.6C325.933 48.533 374.933 196.533 291 284.867 243.4 335 175.267 347 109.533 316.867 93 309.267 91.667 309.333 59.667 319c-14.534 4.467-26.867 7.867-27.334 7.667-.533-.2 2.667-12.067 6.934-26.334 9.8-32.466 9.933-35 2-52C-13.2 131.933 80.867 5.8 205.867 27.6z"/><path fill="#767676" d="M106.067 167.133c-19.334 5.6-18.6 34.6 1 39.867 20.133 5.4 34.6-19.8 19.866-34.533-5.866-5.8-12.866-7.6-20.866-5.334zm66.666 0c-19.333 5.6-18.6 34.6 1 39.867 20.134 5.4 34.6-19.8 19.867-34.533-5.867-5.8-12.867-7.6-20.867-5.334zm66.667 0c-19.333 5.6-18.6 34.6 1 39.867 20.133 5.4 34.6-19.8 19.867-34.533-5.867-5.8-12.867-7.6-20.867-5.334z"/></symbol>
    <symbol id="icon-post-album-off" viewBox="0 0 26 26">
        <path fill="#DBDBDB" stroke="#DBDBDB" stroke-linecap="round" d="M10.833 3.25H3.25v7.583h7.583V3.25zm11.917 0h-7.583v7.583h7.583V3.25zm0 11.916h-7.583v7.584h7.583v-7.584zm-11.917 0H3.25v7.584h7.583v-7.584z" />
    </symbol>
    <symbol id="icon-post-list-off" viewBox="0 0 26 26">
        <path fill="#DBDBDB" stroke="#DBDBDB" stroke-linecap="round" d="M22.75 3.25H3.25v4.333h19.5V3.25zm0 7.584H3.25v4.333h19.5v-4.333zm0 7.582H3.25v4.334h19.5v-4.334z" />
    </symbol>
    <symbol id="icon-post-album-off" viewBox="0 0 26 26">
        <path fill="#DBDBDB" stroke="#DBDBDB" stroke-linecap="round" d="M10.833 3.25H3.25v7.583h7.583V3.25zm11.917 0h-7.583v7.583h7.583V3.25zm0 11.916h-7.583v7.584h7.583v-7.584zm-11.917 0H3.25v7.584h7.583v-7.584z" />
    </symbol>
    <symbol id="icon-post-list-off" viewBox="0 0 26 26">
        <path fill="#DBDBDB" stroke="#DBDBDB" stroke-linecap="round" d="M22.75 3.25H3.25v4.333h19.5V3.25zm0 7.584H3.25v4.333h19.5v-4.333zm0 7.582H3.25v4.334h19.5v-4.334z" />
    </symbol>
    <symbol id="icon-post-album-on" viewBox="0 0 26 26">
        <path fill="#767676" stroke="#767676" stroke-linecap="round" d="M10.833 3.25H3.25v7.583h7.583V3.25zm11.917 0h-7.583v7.583h7.583V3.25zm0 11.916h-7.583v7.584h7.583v-7.584zm-11.917 0H3.25v7.584h7.583v-7.584z" />
    </symbol>
    <symbol id="icon-post-list-on" viewBox="0 0 26 26">
        <path fill="#767676" stroke="#767676" stroke-linecap="round" d="M22.75 3.25H3.25v4.333h19.5V3.25zm0 7.584H3.25v4.333h19.5v-4.333zm0 7.582H3.25v4.334h19.5v-4.334z" />
    </symbol>
    <symbol id="camera-btn" viewBox="0 0 100 100">
        <rect width="100" height="100" fill="#DBDBDB" rx="10" />
        <path stroke="#fff" stroke-width="3" d="M39 50.5h21M49.5 40v21" />
    </symbol>


    <symbol id="camera-btn-1" viewBox="0 0 35 35">
        <path d="M17.5002 22.1668C20.0775 22.1668 22.1668 20.0775 22.1668 17.5002C22.1668 14.9228 20.0775 12.8335 17.5002 12.8335C14.9228 12.8335 12.8335 14.9228 12.8335 17.5002C12.8335 20.0775 14.9228 22.1668 17.5002 22.1668Z" fill="white"/>
        <path d="M13.1248 2.9165L10.4561 5.83317H5.83317C4.229 5.83317 2.9165 7.14567 2.9165 8.74984V26.2498C2.9165 27.854 4.229 29.1665 5.83317 29.1665H29.1665C30.7707 29.1665 32.0832 27.854 32.0832 26.2498V8.74984C32.0832 7.14567 30.7707 5.83317 29.1665 5.83317H24.5436L21.8748 2.9165H13.1248ZM17.4998 24.7915C13.4748 24.7915 10.2082 21.5248 10.2082 17.4998C10.2082 13.4748 13.4748 10.2082 17.4998 10.2082C21.5248 10.2082 24.7915 13.4748 24.7915 17.4998C24.7915 21.5248 21.5248 24.7915 17.4998 24.7915Z" fill="white"/>
    </symbol>





    <symbol id="star" viewBox="0 0 48 46">
        <path fill="#FFC700" d="M24 0l5.613 17.275h18.163L33.082 27.95l5.613 17.274L24 34.55 9.305 45.225l5.613-17.274L.224 17.275h18.163L24 0z" />
    </symbol>
    <symbol id="github" viewBox="0 0 24 24">
        <path fill-rule="evenodd" clip-rule="evenodd" d="M12 3C7.02898 3 3 7.13096 3 12.2278C3 16.3042 5.578 19.7635 9.1549 20.9847C9.60517 21.068 9.7676 20.7839 9.7676 20.5397C9.7676 20.3204 9.76038 19.7394 9.75767 18.9706C7.25366 19.5275 6.72488 17.7327 6.72488 17.7327C6.31702 16.6669 5.72599 16.3828 5.72599 16.3828C4.90936 15.8101 5.78825 15.8231 5.78825 15.8231C6.6924 15.8879 7.16613 16.7742 7.16613 16.7742C7.96922 18.1842 9.27401 17.7771 9.78474 17.5412C9.86685 16.9444 10.1015 16.5373 10.3577 16.307C8.35994 16.0747 6.25927 15.2828 6.25927 11.7458C6.25927 10.7401 6.61029 9.91485 7.18328 9.27092C7.09214 9.03685 6.78083 8.09778 7.27261 6.82842C7.27261 6.82842 8.02787 6.57955 9.74684 7.77304C10.4669 7.56857 11.2348 7.46588 11.9991 7.46218C12.7652 7.46588 13.534 7.56857 14.2514 7.77304C15.9712 6.57862 16.7256 6.82842 16.7256 6.82842C17.2174 8.09778 16.9088 9.03685 16.8149 9.27092C17.3924 9.91485 17.7389 10.7392 17.7389 11.7458C17.7389 15.292 15.6365 16.071 13.6314 16.2996C13.9518 16.5845 14.2405 17.147 14.2405 18.0075C14.2405 19.2417 14.2297 20.2372 14.2297 20.5397C14.2297 20.7867 14.3903 21.0735 14.8496 20.9829C18.4247 19.7598 21 16.3033 21 12.2278C21 7.13096 16.971 3 12 3Z" fill="white"/>
    </symbol>
    <symbol id="facebook" viewBox="0 0 24 24">
        <path fill="#2D9CDB" d="M17 2h-3a5 5 0 0 0-5 5v3H6v4h3v8h4v-8h3l1-4h-4V7a1 1 0 0 1 1-1h3V2z" />
    </symbol>
    <symbol id="google" viewBox="0 0 24 24">
        <path fill="#4285F4" d="M21 12.207c0-.606-.054-1.18-.146-1.74h-8.659v3.456h4.958c-.222 1.134-.873 2.092-1.839 2.743v2.3h2.958C20.004 17.363 21 15.003 21 12.205z" />
        <path fill="#34A853" d="M12.195 21.195c2.483 0 4.56-.827 6.077-2.23l-2.958-2.298c-.828.551-1.877.889-3.119.889-2.398 0-4.429-1.617-5.157-3.801h-3.05v2.368c1.51 3.003 4.613 5.072 8.207 5.072z" />
        <path fill="#FBBC05" d="M7.038 13.755A5.336 5.336 0 0 1 6.748 12c0-.613.106-1.203.29-1.755V7.877h-3.05a9.089 9.089 0 0 0 0 8.246l3.05-2.368z" />
        <path fill="#EA4335" d="M12.195 6.445c1.357 0 2.567.467 3.525 1.379l2.62-2.62c-1.585-1.487-3.662-2.4-6.145-2.4-3.594 0-6.697 2.07-8.207 5.073l3.05 2.368c.728-2.184 2.759-3.8 5.157-3.8z" />
    </symbol>
    <symbol id="kakao" viewBox="0 0 24 24">
        <path fill="#212529" d="M21 11.5a8.38 8.38 0 0 1-.9 3.8 8.5 8.5 0 0 1-7.6 4.7 8.379 8.379 0 0 1-3.8-.9L3 21l1.9-5.7a8.38 8.38 0 0 1-.9-3.8 8.5 8.5 0 0 1 4.7-7.6 8.38 8.38 0 0 1 3.8-.9h.5a8.48 8.48 0 0 1 8 8v.5z" />
    </symbol>
    <symbol id="arrow" viewBox="0 0 21 15">
        <path stroke="#777" d="M16.096 4.75l.837.848-1.192.002-11.98.022C1.973 5.625.512 7.105.515 8.945l.007 3.817a.76.76 0 0 0 .751.772.76.76 0 0 0 .749-.774l-.007-3.818a1.76 1.76 0 0 1 1.747-1.775l11.98-.022 1.194-.002-.835.852-2.862 2.92a.79.79 0 0 0 .002 1.1.736.736 0 0 0 1.056-.001l4.991-5.1a.79.79 0 0 0-.002-1.1L14.278.734a.736.736 0 0 0-1.056.001.79.79 0 0 0 .002 1.1l2.872 2.914z" />
    </symbol>
    <symbol id="car-solid" viewBox="0 0 25 25">
        <path stroke="#777" d="M9.25 7.429v-.5H6.691c-.708 0-1.352.42-1.618 1.072v.001l-1.188 2.879-.284.69H9.25V7.43zm.875 3.642v.5h8.333l-.674-.817-2.625-3.188a1.766 1.766 0 0 0-1.362-.637h-3.672v4.141zm10.122.356l.127.154.198.025c2.225.274 3.928 2.116 3.928 4.323v1.821c0 .382-.321.714-.75.714h-1.722l-.072.415c-.254 1.477-1.583 2.621-3.206 2.621s-2.952-1.144-3.207-2.62l-.071-.416H9.528l-.072.415C9.202 20.356 7.873 21.5 6.25 21.5s-2.952-1.144-3.206-2.62l-.072-.416H1.25c-.429 0-.75-.332-.75-.714V13.5c0-.807.515-1.507 1.265-1.795l.201-.077.082-.2 1.625-3.95C4.16 6.29 5.353 5.5 6.692 5.5h7.106c.995 0 1.93.437 2.543 1.184l3.907 4.743zm-3.268 5.367a2.31 2.31 0 0 0-.468.785 2.274 2.274 0 0 0 .08 1.793c.136.28.326.529.56.734.233.206.506.363.8.465a2.425 2.425 0 0 0 1.822-.1 2.37 2.37 0 0 0 .744-.55 2.31 2.31 0 0 0 .468-.786 2.274 2.274 0 0 0-.08-1.793 2.325 2.325 0 0 0-.56-.734 2.424 2.424 0 0 0-2.622-.365 2.37 2.37 0 0 0-.744.55zm-9.055-.083a2.403 2.403 0 0 0-1.674-.675c-.625 0-1.228.24-1.674.675a2.295 2.295 0 0 0-.701 1.646 2.3 2.3 0 0 0 .7 1.647 2.403 2.403 0 0 0 1.675.675c.625 0 1.228-.242 1.674-.675a2.295 2.295 0 0 0 .701-1.647c0-.62-.254-1.212-.7-1.646z" />
    </symbol>
    <symbol id="bookmark-solid" viewBox="0 0 14 19">
        <g clip-path="url(#a)">
            <path stroke="#777" stroke-width="1.5" d="M.961 18.226l-.003.002a.123.123 0 0 1-.072.022c-.062 0-.136-.056-.136-.152V1.781c0-.581.46-1.031 1-1.031h10.5c.54 0 1 .45 1 1.031v16.317c0 .096-.074.152-.136.152a.122.122 0 0 1-.072-.022l-.003-.002-5.604-3.993-.435-.31-.435.31L.96 18.226z" />
        </g>
        <defs>
            <clipPath id="a">
                <path fill="#fff" d="M0 0h14v19H0z" />
            </clipPath>
        </defs>
    </symbol>
    <symbol id="close-icon" viewBox="0 0 48 46">
    <path d="M 9.15625 6.3125 L 6.3125 9.15625 L 22.15625 25 L 6.21875 40.96875 L 9.03125 43.78125 L 25 27.84375 L 40.9375 43.78125 L 43.78125 40.9375 L 27.84375 25 L 43.6875 9.15625 L 40.84375 6.3125 L 25 22.15625 Z"></path>
    </symbol>
</svg>