<svg width="36" height="36" viewBox="0 0 36 36" fill="none" xmlns="http://www.w3.org/2000/svg">
<circle cx="18" cy="18" r="18" fill="#FF644B"/>
<path d="M23.8799 10.4395H12.1199C11.1921 10.4395 10.4399 11.1916 10.4399 12.1195V23.8795C10.4399 24.8073 11.1921 25.5595 12.1199 25.5595H23.8799C24.8078 25.5595 25.5599 24.8073 25.5599 23.8795V12.1195C25.5599 11.1916 24.8078 10.4395 23.8799 10.4395Z" stroke="white" stroke-width="1.5" stroke-linecap="round" stroke-linejoin="round"/>
<path d="M15.0598 16.3198C15.7557 16.3198 16.3198 15.7557 16.3198 15.0598C16.3198 14.3639 15.7557 13.7998 15.0598 13.7998C14.3639 13.7998 13.7998 14.3639 13.7998 15.0598C13.7998 15.7557 14.3639 16.3198 15.0598 16.3198Z" stroke="white" stroke-width="1.5" stroke-linecap="round" stroke-linejoin="round"/>
<path d="M25.5599 20.5203L21.3599 16.3203L12.1199 25.5603" stroke="white" stroke-width="1.5" stroke-linecap="round" stroke-linejoin="round"/>
</svg>
