<svg width="110" height="110" viewBox="0 0 110 110" fill="none" xmlns="http://www.w3.org/2000/svg">
<g id="basic-profile-img-">
<circle id="Ellipse 4" cx="55" cy="55" r="54.5" stroke="#DBDBDB"/>
<g id="Group 64">
<g id="Vector">
<path d="M41.3734 48.194L41.7906 48.9032C49.7568 48.9032 57.5307 45.4237 65.4938 45.1966C66.8749 45.1572 68.2658 45.2506 69.6477 45.4809L70.3157 45.5923L70.342 45.5198C70.3897 45.3886 70.4265 45.2563 70.4529 45.1239C70.8743 43.0067 68.7293 39.225 66.5705 39.225C65.9664 39.225 65.4989 38.7084 65.2209 38.172C64.8395 37.4359 64.0707 36.9329 63.1844 36.9329C62.2528 36.9329 61.4508 36.3249 60.7335 35.7304C59.6939 34.8689 58.1906 34.6652 56.9174 35.3507C56.8548 35.3844 56.7795 35.384 56.716 35.352C54.8751 34.4268 52.6218 35.0591 51.5354 36.8245C51.4971 36.8867 51.4188 36.9111 51.3507 36.8847C49.4595 36.1513 47.3232 37.1443 46.6763 39.0849C46.6484 39.1686 46.57 39.2244 46.4819 39.2283C44.7219 39.3056 43.3187 40.7569 43.3187 42.536C43.3187 43.1347 42.8908 43.6325 42.3861 43.9546C41.0136 44.8306 40.4888 46.6902 41.3734 48.194Z" fill="#DADADA"/>
<path d="M37.4785 57.5329C38.6768 60.2032 38.2339 63.0026 35.56 64.2025C32.886 65.4024 30.6026 63.8137 29.4043 61.1434C28.206 58.473 27.8165 54.1052 30.4905 52.9053C33.1644 51.7054 36.2802 54.8625 37.4785 57.5329Z" fill="#DADADA"/>
<path d="M31.1695 53.4876C32.6294 66.1127 43.0194 75.9002 55.6196 75.9002C67.638 75.9002 78.7419 67.3271 79.9629 55.2639C80.0612 54.2923 79.2686 53.4864 78.292 53.4849C77.3115 53.4833 76.5298 54.2922 76.4676 55.2708C75.7938 65.8578 67.0403 73.8627 55.6196 73.8627C43.5641 73.8627 34.1518 65.5486 32.6977 53.4876L31.1695 53.4876Z" fill="#DADADA"/>
<path d="M76.5463 50.8217C76.8195 50.8248 77.0394 51.0472 77.0394 51.3204C77.0394 51.5937 76.8195 51.8161 76.5463 51.8192L34.6268 52.2956C34.0839 52.3017 33.6405 51.8634 33.6405 51.3204C33.6405 50.7775 34.0839 50.3391 34.6268 50.3453L76.5463 50.8217Z" fill="#DADADA"/>
<path d="M55.34 51.3204H77.0394C76.641 49.1155 71.9357 47.3751 66.1897 47.3751C60.4437 47.3751 55.7383 49.1155 55.34 51.3204Z" fill="#DADADA"/>
<path d="M77.692 79.3941C77.9369 79.3966 78.1341 79.5958 78.1341 79.8407C78.1341 80.0856 77.9369 80.2849 77.692 80.2874L35.6194 80.716C35.1325 80.721 34.7352 80.3276 34.7352 79.8407C34.7352 79.3538 35.1325 78.9605 35.6194 78.9655L77.692 79.3941Z" fill="#DADADA"/>
<path d="M77.692 82.0469C77.9369 82.0494 78.1341 82.2487 78.1341 82.4936C78.1341 82.7385 77.9369 82.9377 77.692 82.9402L35.6194 83.3689C35.1325 83.3738 34.7352 82.9805 34.7352 82.4936C34.7352 82.0067 35.1325 81.6133 35.6194 81.6183L77.692 82.0469Z" fill="#DADADA"/>
<path d="M39.2826 41.4845L31.2254 37.8685C32.5278 36.1965 34.4493 35.4374 36.6519 36.4259C38.8582 37.4161 39.6396 39.3857 39.2826 41.4845Z" fill="#DADADA"/>
<path d="M28.2678 46.2361C28.0444 46.1358 27.9411 45.8753 28.0341 45.6468L31.2254 37.8685L32.5757 38.4745L28.8634 46.0189C28.7545 46.2403 28.4912 46.3363 28.2678 46.2361Z" fill="#DADADA"/>
<path d="M30.566 47.2674C30.3984 47.1923 30.341 46.9523 30.4359 46.7247L33.6896 38.9744L34.7023 39.4289L31.0579 47.0038C30.951 47.2261 30.7335 47.3426 30.566 47.2674Z" fill="#DADADA"/>
<path d="M32.6925 48.2218C32.525 48.1466 32.4675 47.9067 32.5625 47.679L35.8162 39.9288L36.8288 40.3832L33.1845 47.9582C33.0775 48.1805 32.8601 48.297 32.6925 48.2218Z" fill="#DADADA"/>
<path d="M34.9572 49.2382C34.7432 49.1421 34.6476 48.8851 34.7409 48.6567L37.9427 40.8831L39.2929 41.4891L35.5354 49.0133C35.4268 49.2348 35.1712 49.3342 34.9572 49.2382Z" fill="#DADADA"/>
<path d="M35.1686 38.2063H36.9585C41.1079 32.5036 47.7898 29.0375 55.5737 29.0375C66.9944 29.0375 75.7478 37.0424 76.4216 47.6295C76.4839 48.608 77.2656 49.4169 78.2461 49.4154C79.2227 49.4138 80.0153 48.608 79.917 47.6364C78.696 35.5732 67.5921 27 55.5737 27C47.083 27 39.5959 31.4443 35.1686 38.2063Z" fill="#DADADA"/>
</g>
<path id="Vector 9" d="M46.3376 59.6006V59.6006C50.3521 66.9605 60.8772 67.0818 65.0603 59.8164L65.1846 59.6006" stroke="#DADADA" stroke-width="2"/>
</g>
</g>
</svg>
