<svg xmlns="http://www.w3.org/2000/svg"><symbol id="icon-home-fill" viewBox="0 0 104 104"><g fill="#ff644b"><path d="M45.9.9C37.5 2.6 28 11.4 26.4 19c-.3 1.4-.7 3.1-1 3.7-.2.9-2.8 1.3-8.1 1.3H9.5L6.2 37.8C2.6 52.9 2.4 55.3 4.5 59c1.1 1.9 1.4 7 1.5 22.2V101H3.4c-1.6 0-2.4.5-2.2 1.2.4 1 11.6 1.4 50.5 1.6 43.9.2 50.2 0 50.7-1.3.4-1.1-.1-1.5-1.9-1.5-2.4 0-2.4-.2-2.7-8.7-.2-7-.6-8.8-1.8-8.8-1 0-1.4.8-1.2 2.2.3 2.3.3 2.3-14.2 2.3H66V71h29.2l-.4 4.7c-.2 3.9 0 4.8 1.5 5.1 1.5.3 1.7-.7 1.7-9.5.1-6.6.5-10.6 1.5-12.3 2.1-3.6 1.9-6-1.7-21.2l-3.3-13.7-8-.3-7.9-.3-.7-3.2c-.7-3.6-5-11.3-7.4-13.3-1.2-1-1.9-1-2.7-.2-.8.8-.3 2.1 2 4.7 4.6 5.1 6.8 13.5 5.3 19.9-1.3 5.8-4.8 11.2-9.1 14.5l-3 2.2v-6.6c0-3.7.4-6.5 1-6.5s1.9-.9 3-2c1.5-1.5 2-3.3 2-7.6 0-4.8-.4-5.9-2.9-8.5-1.6-1.6-3.7-2.9-4.6-2.9-.9 0-3 1.3-4.6 2.9-2.5 2.6-2.9 3.7-2.9 8.5 0 4.3.5 6.1 2 7.6 1.1 1.1 2.5 2 3 2 .7 0 1 2.7.8 7.2l-.3 7.3h-15l-.3-8-.3-8 3.1-1.2c2.9-1.1 3-1.4 3-7.1 0-3.3.3-6.7.6-7.6.4-1.2 0-1.6-1.5-1.6-1.6 0-2.1.6-2.1 2.5 0 1.6-.6 2.5-1.5 2.5s-1.5-.9-1.5-2.5-.6-2.5-1.5-2.5-1.5.9-1.5 2.5-.6 2.5-1.5 2.5-1.5-.9-1.5-2.5-.6-2.5-1.5-2.5c-1.2 0-1.5 1.5-1.5 7.6 0 7.5 0 7.6 3 8.7 3 1.1 3 1.2 3 8.4v7.4l-3-2.2c-4.4-3.3-7.8-8.7-9-14.6-2.2-9.9 3.1-20.7 12.4-25.6 5.2-2.7 15.6-3 20.3-.4 2.8 1.5 3.2 1.5 3.7 0 .4-.9.5-1.7.4-1.7C61.3 1 51.5-.3 45.9.9zm19.2 19.8c1.3 3.4 1.1 8.7-.3 10.1-1.7 1.7-5.3 1.5-6.8-.3-1.7-2.1-.7-10.5 1.5-12.1 2.2-1.6 4.4-.7 5.6 2.3zm-18.3 6c-.3 2.5-.7 2.8-4.3 2.8-3.6 0-4-.3-4.3-2.8-.3-2.6-.2-2.7 4.3-2.7s4.6.1 4.3 2.7zm-22.1 4c-.3 2.1-.9 7.1-1.3 11l-.7 7.3h-7.8c-4.4 0-7.9-.2-7.9-.5s1.2-5.3 2.6-11L12.2 27h13.1l-.6 3.7zm69.7 6.8c1.4 5.7 2.6 10.7 2.6 11 0 .3-3.5.5-7.9.5h-7.8l-.7-7.3c-.4-3.9-.9-8.9-1.3-11l-.6-3.7h13.1l2.6 10.5zm-61.5 7.8c1.4 1.6 3.8 3.5 5.4 4.3 5.4 2.9 1.5 11.7-5.3 11.7-3.7 0-8-3.9-8-7.4 0-1.6.7-1.9 4-1.9 2.9 0 4-.4 4-1.5 0-1-1.1-1.5-3.5-1.5-3.2 0-3.5-.3-3.5-2.9 0-1.6.3-4.3.7-6.1l.6-3.3 1.5 2.9c.8 1.6 2.6 4.2 4.1 5.7zm45 .4L78 49H67.3l4.4-4.5c2.4-2.5 4.4-5.3 4.4-6.3.2-2.5 1.6 3.7 1.8 7.5zM22 54.2c-.1 4.8-5.9 8.6-10.4 6.8C8.8 60 6 56.3 6 53.8c0-1.6 1-1.8 8-1.8 7.6 0 8 .1 8 2.2zm33.6-1c3.9-.9 4.4-.8 4.4.9 0 3.3-4.4 7.2-8 7.2-3.7 0-8-3.9-8-7.3 0-1.6.4-1.7 3.6-.9 2.3.7 5.1.7 8 .1zm23.4.7c0 3.4-4.3 7.4-7.8 7.4-3.9 0-8.2-3.7-8.2-7 0-2.2.3-2.3 8-2.3 7.3 0 8 .2 8 1.9zm19 0c0 3.4-4.3 7.4-7.8 7.4-3.9 0-8.2-3.7-8.2-7 0-2.2.3-2.3 8-2.3 7.3 0 8 .2 8 1.9zM32 64.6c2.7.4 4.3 0 7-1.8l3.5-2.4 2.8 2c3.8 2.8 9.7 2.7 13.6-.2 1.8-1.3 3.2-1.8 3.6-1.2.3.6 2 1.7 3.7 2.6 3.7 1.9 9 1.2 11.8-1.6 1.9-1.9 2-1.9 5.7.6 3 2.1 4.6 2.4 7.6 2 3.2-.6 3.7-.4 3.7 1.4 0 2-.6 2-43 2S9 68 9 66c0-1.8.5-2 3.8-1.4 2.9.4 4.4.1 7.2-1.8 3.4-2.4 3.5-2.4 6-.6 1.4 1 4.1 2.1 6 2.4zm6 14.9V88H9V71h29v8.5zM63 86v15H41V71h22v15zM38 96v5H9V91h29v5zm57 0v5H66V91h29v5z"/><path d="M14.2 75.7c.5 2.6 3.8 2.9 3.8.4 0-1.5-.6-2.1-2.1-2.1-1.4 0-1.9.5-1.7 1.7zm6.8.3c0 1.1.7 2 1.5 2s1.5-.9 1.5-2-.7-2-1.5-2-1.5.9-1.5 2zm6 0c0 1.5.5 2 1.8 1.8.9-.2 1.7-1 1.7-1.8s-.8-1.6-1.7-1.8c-1.3-.2-1.8.3-1.8 1.8zm20 9c0 2.2.5 3 1.8 3 1.2 0 1.7-.9 1.8-3 .1-2.3-.3-3-1.7-3s-1.9.7-1.9 3zm6.3 0c0 2.2.5 3 1.9 3 1.3 0 1.8-.8 1.8-3s-.5-3-1.8-3c-1.4 0-1.9.8-1.9 3z"/></g></symbol><symbol id="icon-edit" viewBox="0 0 108 108"><g fill="#767676"><path d="M51 1.3c-1.4.7-2.6 2.3-2.8 3.5C47.9 7 47.6 7 33.1 7 19 7 18.3 7.1 16.2 9.3 14 11.6 14 11.8 14 57.2c0 43.4.1 45.7 1.9 47.9l1.9 2.4h72.1l2.3-2.3 2.3-2.3.3-43.7c.1-24 0-44.7-.3-45.9-.3-1.2-1.5-3.2-2.7-4.3-2-1.8-3.5-2-16.5-2C66 7 61 6.6 61 6c0-1.5-4.7-6-6.2-6-.7 0-2.4.6-3.8 1.3zm5.8 2.9c2 2 1.4 2.8-2.3 2.8-2.2 0-3.5-.5-3.5-1.3 0-2.8 3.6-3.7 5.8-1.5zM39 13.4c0 5.9 1.6 6.6 15.4 6.6 8.1 0 12.6-.4 13.4-1.2.7-.7 1.2-2.9 1.2-5V10h9.8c6.3 0 10.2.4 11 1.2.9.9 1.2 12.6 1.2 46.5 0 43.7-.1 45.3-1.9 46.3-1.3.6-14.2 1-35.2 1-29.5 0-33.4-.2-35.1-1.7-1.7-1.5-1.8-4.3-1.8-45.9 0-38.9.2-44.4 1.6-45.8 1.2-1.2 3.7-1.6 11-1.6H39v3.4zm27 .1v3.6l-11.7-.3-11.8-.3-.3-3.3-.3-3.2H66v3.5z"/><path d="M26.7 13.9l-5.7.6-.1 36.5c-.1 29.9.2 36.5 1.3 36.5s1.3-6.5 1.6-35.3L24 17h5.5c5.4 0 8-1.5 5.4-3.1-.8-.5-1.6-.8-1.9-.7-.3.1-3.1.4-6.3.7zm46.8 0c-1.2 2.1.7 3.1 6.1 3.1H85v78H54.6c-30 0-30.4 0-30.9-2.1-.8-3-3.2-1.8-3.2 1.7v2.9h67l.3-41.8L88 14h-5.4c-3 0-6.1-.3-6.9-.6-.8-.3-1.8-.1-2.2.5z"/><path d="M30 33.5c0 5.1.3 6.5 1.5 6.5.9 0 1.5-.9 1.6-2.3v-2.2l1.1 2.2c.6 1.3 1.6 2.3 2.3 2.3.7 0 1.7-1 2.3-2.3l1.1-2.2v2.2c.1 1.4.7 2.3 1.6 2.3 1.2 0 1.5-1.4 1.5-6.5 0-7.7-1.9-8.8-4.4-2.5-.9 2.2-1.8 4-2.1 4-.3 0-1.2-1.8-2.1-4-2.5-6.3-4.4-5.2-4.4 2.5zm15.7-5.8c-.4.3-.7 3.3-.7 6.5V40h5.1c5.7 0 6.6-2.3 1.1-2.8-3.5-.4-4.5-2.2-1.2-2.2 1.1 0 2-.7 2-1.5s-.9-1.5-2-1.5-2-.5-2-1c0-.6 1.6-1 3.5-1 2.4 0 3.5-.5 3.5-1.5 0-1.1-1.1-1.5-4.3-1.5-2.4 0-4.7.3-5 .7zM57 33.5c0 5.1.3 6.5 1.5 6.5 1 0 1.5-1 1.5-3.3v-3.2l2.1 3.2C65.5 42 67 41 67 33.5c0-5-.3-6.5-1.4-6.5-.9 0-1.6 1.2-1.8 3.2l-.4 3.3-1.9-3.2c-3.2-5.2-4.5-4.2-4.5 3.2zm12-1.2c0 2.9.5 5.8 1.2 6.5 2 2 6.6 1.5 7.8-.8 1.6-3 .9-10.5-1-10.5-1.1 0-1.5 1.2-1.5 4.5 0 3.4-.4 4.5-1.7 4.8-1.5.3-1.8-.4-1.8-4.7 0-3.9-.4-5.1-1.5-5.1S69 28.3 69 32.3zM30.5 47c-1.1 1.8 1.8 2 24.4 1.8 16.9-.2 22.5-.6 22.9-1.6.5-1.5-46.3-1.8-47.3-.2zm.2 7.6c-1.9 1.9 2.1 2.4 18.9 2.4 14.4 0 18.5-.3 18.2-1.3-.4-.9-5.1-1.3-18.4-1.5-9.9-.1-18.3.1-18.7.4zm41 0c-1.5 1.6-.5 2.4 2.9 2.4 2.4 0 3.4-.4 3.2-1.3-.5-1.3-5-2.2-6.1-1.1zm-40.8 9c-.5.6-.6 1.4-.2 1.7 1.1 1.2 26.1.8 26.8-.4.4-.6.5-1.2.2-1.5-1-1.1-25.9-.9-26.8.2zm40.6-.6c-.4.7-.3 1.6.3 2.2 1.4 1.4 5.7.6 5.7-1.2 0-1.8-5-2.6-6-1zm-40.8 8.6c-1.9 1.9 2.1 2.4 18.9 2.4 14.4 0 18.5-.3 18.2-1.3-.4-.9-5.1-1.3-18.4-1.5-9.9-.1-18.3.1-18.7.4zm40.3.9c0 1 1.1 1.5 3.5 1.5s3.5-.5 3.5-1.5-1.1-1.5-3.5-1.5-3.5.5-3.5 1.5zm-40.4 8c-.9 2.3.8 2.6 14.5 2.3 10.2-.3 12.4-.6 12.4-1.8 0-2.3-26-2.8-26.9-.5zm40.9-.5c-.4.7-.3 1.6.3 2.2 1.4 1.4 5.7.6 5.7-1.2 0-1.8-5-2.6-6-1z"/></g></symbol><symbol id="icon-edit-fill" viewBox="0 0 108 108"><g fill="#ff644b"><path d="M51 1.3c-1.4.7-2.6 2.3-2.8 3.5C47.9 7 47.6 7 33.1 7 19 7 18.3 7.1 16.2 9.3 14 11.6 14 11.8 14 57.2c0 43.4.1 45.7 1.9 47.9l1.9 2.4h72.1l2.3-2.3 2.3-2.3.3-43.7c.1-24 0-44.7-.3-45.9-.3-1.2-1.5-3.2-2.7-4.3-2-1.8-3.5-2-16.5-2C66 7 61 6.6 61 6c0-1.5-4.7-6-6.2-6-.7 0-2.4.6-3.8 1.3zm5.8 2.9c2 2 1.4 2.8-2.3 2.8-2.2 0-3.5-.5-3.5-1.3 0-2.8 3.6-3.7 5.8-1.5zM39 13.4c0 5.9 1.6 6.6 15.4 6.6 8.1 0 12.6-.4 13.4-1.2.7-.7 1.2-2.9 1.2-5V10h9.8c6.3 0 10.2.4 11 1.2.9.9 1.2 12.6 1.2 46.5 0 43.7-.1 45.3-1.9 46.3-1.3.6-14.2 1-35.2 1-29.5 0-33.4-.2-35.1-1.7-1.7-1.5-1.8-4.3-1.8-45.9 0-38.9.2-44.4 1.6-45.8 1.2-1.2 3.7-1.6 11-1.6H39v3.4zm27 .1v3.6l-11.7-.3-11.8-.3-.3-3.3-.3-3.2H66v3.5z"/><path d="M26.7 13.9l-5.7.6-.1 36.5c-.1 29.9.2 36.5 1.3 36.5s1.3-6.5 1.6-35.3L24 17h5.5c5.4 0 8-1.5 5.4-3.1-.8-.5-1.6-.8-1.9-.7-.3.1-3.1.4-6.3.7zm46.8 0c-1.2 2.1.7 3.1 6.1 3.1H85v78H54.6c-30 0-30.4 0-30.9-2.1-.8-3-3.2-1.8-3.2 1.7v2.9h67l.3-41.8L88 14h-5.4c-3 0-6.1-.3-6.9-.6-.8-.3-1.8-.1-2.2.5z"/><path d="M30 33.5c0 5.1.3 6.5 1.5 6.5.9 0 1.5-.9 1.6-2.3v-2.2l1.1 2.2c.6 1.3 1.6 2.3 2.3 2.3.7 0 1.7-1 2.3-2.3l1.1-2.2v2.2c.1 1.4.7 2.3 1.6 2.3 1.2 0 1.5-1.4 1.5-6.5 0-7.7-1.9-8.8-4.4-2.5-.9 2.2-1.8 4-2.1 4-.3 0-1.2-1.8-2.1-4-2.5-6.3-4.4-5.2-4.4 2.5zm15.7-5.8c-.4.3-.7 3.3-.7 6.5V40h5.1c5.7 0 6.6-2.3 1.1-2.8-3.5-.4-4.5-2.2-1.2-2.2 1.1 0 2-.7 2-1.5s-.9-1.5-2-1.5-2-.5-2-1c0-.6 1.6-1 3.5-1 2.4 0 3.5-.5 3.5-1.5 0-1.1-1.1-1.5-4.3-1.5-2.4 0-4.7.3-5 .7zM57 33.5c0 5.1.3 6.5 1.5 6.5 1 0 1.5-1 1.5-3.3v-3.2l2.1 3.2C65.5 42 67 41 67 33.5c0-5-.3-6.5-1.4-6.5-.9 0-1.6 1.2-1.8 3.2l-.4 3.3-1.9-3.2c-3.2-5.2-4.5-4.2-4.5 3.2zm12-1.2c0 2.9.5 5.8 1.2 6.5 2 2 6.6 1.5 7.8-.8 1.6-3 .9-10.5-1-10.5-1.1 0-1.5 1.2-1.5 4.5 0 3.4-.4 4.5-1.7 4.8-1.5.3-1.8-.4-1.8-4.7 0-3.9-.4-5.1-1.5-5.1S69 28.3 69 32.3zM30.5 47c-1.1 1.8 1.8 2 24.4 1.8 16.9-.2 22.5-.6 22.9-1.6.5-1.5-46.3-1.8-47.3-.2zm.2 7.6c-1.9 1.9 2.1 2.4 18.9 2.4 14.4 0 18.5-.3 18.2-1.3-.4-.9-5.1-1.3-18.4-1.5-9.9-.1-18.3.1-18.7.4zm41 0c-1.5 1.6-.5 2.4 2.9 2.4 2.4 0 3.4-.4 3.2-1.3-.5-1.3-5-2.2-6.1-1.1zm-40.8 9c-.5.6-.6 1.4-.2 1.7 1.1 1.2 26.1.8 26.8-.4.4-.6.5-1.2.2-1.5-1-1.1-25.9-.9-26.8.2zm40.6-.6c-.4.7-.3 1.6.3 2.2 1.4 1.4 5.7.6 5.7-1.2 0-1.8-5-2.6-6-1zm-40.8 8.6c-1.9 1.9 2.1 2.4 18.9 2.4 14.4 0 18.5-.3 18.2-1.3-.4-.9-5.1-1.3-18.4-1.5-9.9-.1-18.3.1-18.7.4zm40.3.9c0 1 1.1 1.5 3.5 1.5s3.5-.5 3.5-1.5-1.1-1.5-3.5-1.5-3.5.5-3.5 1.5zm-40.4 8c-.9 2.3.8 2.6 14.5 2.3 10.2-.3 12.4-.6 12.4-1.8 0-2.3-26-2.8-26.9-.5zm40.9-.5c-.4.7-.3 1.6.3 2.2 1.4 1.4 5.7.6 5.7-1.2 0-1.8-5-2.6-6-1z"/></g></symbol><symbol id="icon-home" viewBox="0 0 104 104"><g fill="#767676"><path d="M45.9.9C37.5 2.6 28 11.4 26.4 19c-.3 1.4-.7 3.1-1 3.7-.2.9-2.8 1.3-8.1 1.3H9.5L6.2 37.8C2.6 52.9 2.4 55.3 4.5 59c1.1 1.9 1.4 7 1.5 22.2V101H3.4c-1.6 0-2.4.5-2.2 1.2.4 1 11.6 1.4 50.5 1.6 43.9.2 50.2 0 50.7-1.3.4-1.1-.1-1.5-1.9-1.5-2.4 0-2.4-.2-2.7-8.7-.2-7-.6-8.8-1.8-8.8-1 0-1.4.8-1.2 2.2.3 2.3.3 2.3-14.2 2.3H66V71h29.2l-.4 4.7c-.2 3.9 0 4.8 1.5 5.1 1.5.3 1.7-.7 1.7-9.5.1-6.6.5-10.6 1.5-12.3 2.1-3.6 1.9-6-1.7-21.2l-3.3-13.7-8-.3-7.9-.3-.7-3.2c-.7-3.6-5-11.3-7.4-13.3-1.2-1-1.9-1-2.7-.2-.8.8-.3 2.1 2 4.7 4.6 5.1 6.8 13.5 5.3 19.9-1.3 5.8-4.8 11.2-9.1 14.5l-3 2.2v-6.6c0-3.7.4-6.5 1-6.5s1.9-.9 3-2c1.5-1.5 2-3.3 2-7.6 0-4.8-.4-5.9-2.9-8.5-1.6-1.6-3.7-2.9-4.6-2.9-.9 0-3 1.3-4.6 2.9-2.5 2.6-2.9 3.7-2.9 8.5 0 4.3.5 6.1 2 7.6 1.1 1.1 2.5 2 3 2 .7 0 1 2.7.8 7.2l-.3 7.3h-15l-.3-8-.3-8 3.1-1.2c2.9-1.1 3-1.4 3-7.1 0-3.3.3-6.7.6-7.6.4-1.2 0-1.6-1.5-1.6-1.6 0-2.1.6-2.1 2.5 0 1.6-.6 2.5-1.5 2.5s-1.5-.9-1.5-2.5-.6-2.5-1.5-2.5-1.5.9-1.5 2.5-.6 2.5-1.5 2.5-1.5-.9-1.5-2.5-.6-2.5-1.5-2.5c-1.2 0-1.5 1.5-1.5 7.6 0 7.5 0 7.6 3 8.7 3 1.1 3 1.2 3 8.4v7.4l-3-2.2c-4.4-3.3-7.8-8.7-9-14.6-2.2-9.9 3.1-20.7 12.4-25.6 5.2-2.7 15.6-3 20.3-.4 2.8 1.5 3.2 1.5 3.7 0 .4-.9.5-1.7.4-1.7C61.3 1 51.5-.3 45.9.9zm19.2 19.8c1.3 3.4 1.1 8.7-.3 10.1-1.7 1.7-5.3 1.5-6.8-.3-1.7-2.1-.7-10.5 1.5-12.1 2.2-1.6 4.4-.7 5.6 2.3zm-18.3 6c-.3 2.5-.7 2.8-4.3 2.8-3.6 0-4-.3-4.3-2.8-.3-2.6-.2-2.7 4.3-2.7s4.6.1 4.3 2.7zm-22.1 4c-.3 2.1-.9 7.1-1.3 11l-.7 7.3h-7.8c-4.4 0-7.9-.2-7.9-.5s1.2-5.3 2.6-11L12.2 27h13.1l-.6 3.7zm69.7 6.8c1.4 5.7 2.6 10.7 2.6 11 0 .3-3.5.5-7.9.5h-7.8l-.7-7.3c-.4-3.9-.9-8.9-1.3-11l-.6-3.7h13.1l2.6 10.5zm-61.5 7.8c1.4 1.6 3.8 3.5 5.4 4.3 5.4 2.9 1.5 11.7-5.3 11.7-3.7 0-8-3.9-8-7.4 0-1.6.7-1.9 4-1.9 2.9 0 4-.4 4-1.5 0-1-1.1-1.5-3.5-1.5-3.2 0-3.5-.3-3.5-2.9 0-1.6.3-4.3.7-6.1l.6-3.3 1.5 2.9c.8 1.6 2.6 4.2 4.1 5.7zm45 .4L78 49H67.3l4.4-4.5c2.4-2.5 4.4-5.3 4.4-6.3.2-2.5 1.6 3.7 1.8 7.5zM22 54.2c-.1 4.8-5.9 8.6-10.4 6.8C8.8 60 6 56.3 6 53.8c0-1.6 1-1.8 8-1.8 7.6 0 8 .1 8 2.2zm33.6-1c3.9-.9 4.4-.8 4.4.9 0 3.3-4.4 7.2-8 7.2-3.7 0-8-3.9-8-7.3 0-1.6.4-1.7 3.6-.9 2.3.7 5.1.7 8 .1zm23.4.7c0 3.4-4.3 7.4-7.8 7.4-3.9 0-8.2-3.7-8.2-7 0-2.2.3-2.3 8-2.3 7.3 0 8 .2 8 1.9zm19 0c0 3.4-4.3 7.4-7.8 7.4-3.9 0-8.2-3.7-8.2-7 0-2.2.3-2.3 8-2.3 7.3 0 8 .2 8 1.9zM32 64.6c2.7.4 4.3 0 7-1.8l3.5-2.4 2.8 2c3.8 2.8 9.7 2.7 13.6-.2 1.8-1.3 3.2-1.8 3.6-1.2.3.6 2 1.7 3.7 2.6 3.7 1.9 9 1.2 11.8-1.6 1.9-1.9 2-1.9 5.7.6 3 2.1 4.6 2.4 7.6 2 3.2-.6 3.7-.4 3.7 1.4 0 2-.6 2-43 2S9 68 9 66c0-1.8.5-2 3.8-1.4 2.9.4 4.4.1 7.2-1.8 3.4-2.4 3.5-2.4 6-.6 1.4 1 4.1 2.1 6 2.4zm6 14.9V88H9V71h29v8.5zM63 86v15H41V71h22v15zM38 96v5H9V91h29v5zm57 0v5H66V91h29v5z"/><path d="M14.2 75.7c.5 2.6 3.8 2.9 3.8.4 0-1.5-.6-2.1-2.1-2.1-1.4 0-1.9.5-1.7 1.7zm6.8.3c0 1.1.7 2 1.5 2s1.5-.9 1.5-2-.7-2-1.5-2-1.5.9-1.5 2zm6 0c0 1.5.5 2 1.8 1.8.9-.2 1.7-1 1.7-1.8s-.8-1.6-1.7-1.8c-1.3-.2-1.8.3-1.8 1.8zm20 9c0 2.2.5 3 1.8 3 1.2 0 1.7-.9 1.8-3 .1-2.3-.3-3-1.7-3s-1.9.7-1.9 3zm6.3 0c0 2.2.5 3 1.9 3 1.3 0 1.8-.8 1.8-3s-.5-3-1.8-3c-1.4 0-1.9.8-1.9 3z"/></g></symbol><symbol xmlns="http://www.w3.org/2000/svg" id="icon-message-fill" viewBox="0 0 300 300"><g fill="#ff644b"><path d="M144.5 1.45c-4.8 1.75-9.25 6.7-10.1 11.25-2.75 14.6 14.4 25.05 25.6 15.65 13.9-11.7 1.6-33-15.5-26.9zM154 12c1.1 1.1 2 2.9 2 4s-.9 2.9-2 4-2.9 2-4 2-2.9-.9-4-2-2-2.9-2-4 .9-2.9 2-4 2.9-2 4-2 2.9.9 4 2zM29.05 19.3l-5 9.35-9 4.7c-13.25 7-13.15 9.7.45 17.05 7.6 4.05 8.2 4.7 12.2 11.7 8.85 15.7 10.35 15.85 17.8 2.25l5-9.1 9-4.95c13.85-7.65 13.4-10.05-3.45-18.95-4.85-2.55-5.9-3.7-9.5-10.45-7.9-14.85-10.25-15.05-17.5-1.6zM40.5 31c2 3.95 3.55 5.5 7.5 7.5 6.2 3.15 6.2 3.6.05 6.45-4 1.9-5.45 3.35-7.85 7.8l-2.95 5.5-2.85-5.4c-2.35-4.3-4-5.95-8.3-8.25l-5.45-2.9 5.5-2.75c4-2.05 5.95-3.8 7.4-6.6 3.9-7.75 3.75-7.7 6.95-1.35zm217.75-18.2c-.95 1.65-3.3 5.85-5.2 9.4-3.25 6.1-3.85 6.65-12.3 11.2-13.3 7.15-13.3 9.7.05 16.85l8.9 4.75 4.8 8.95c7.05 13.35 9.7 13.35 16.8.1 4.75-8.9 4.8-8.95 13.1-13.45 14.05-7.7 14.15-10.05.65-17.3l-8.9-4.75-4.8-9.05c-5.7-10.55-9.55-12.55-13.1-6.7zM266 30.95c1.9 4.05 3.25 5.45 7.65 7.75 6.45 3.4 6.45 3.25.25 6.15-4.25 2-5.45 3.2-7.65 7.75-3.25 6.6-3.25 6.6-6.4.15-2.2-4.45-3.4-5.7-7.75-7.7-5.95-2.8-6.2-3.35-1.95-5.1 4.7-1.95 8.3-5.4 10.3-9.9 2.35-5.15 2.7-5.1 5.55.9zM97.65 12.85c-2.55 2.8-2.1 4.45 4.35 16.6 6.1 11.4 7.65 12.95 11.7 11.45 4.2-1.55 3.75-4.3-2.7-16.4-7.15-13.35-9.75-15.65-13.35-11.65zm98.55-.3c-1.2.85-2.2 1.9-2.2 2.35 0 .45-2.45 5.35-5.5 10.9-6.5 11.95-5.6 18.5 2.1 15.55 1.95-.8 13.65-22.35 13.65-25.25 0-4.35-4.2-6.2-8.05-3.55zm-49 30c-3.1 2.2-3.45 31-.35 33.8 6.1 5.5 8.15 1.25 8.15-16.85 0-15.65-.75-18.5-5-18.5-.3 0-1.55.7-2.8 1.55zm-28 9c-3.3 2.3-2.8 4.5 3.85 17 6.2 11.6 8.15 13.5 11.85 11.5 3.9-2.1 3.5-4.6-2.4-15.8-7.25-13.8-9.15-15.6-13.3-12.7zm56 .25c-3.5 3.5-13.35 23.2-12.65 25.3.85 2.7 4.7 4.4 7 3.15 2.3-1.3 13.45-21.9 13.45-24.85 0-4.2-4.9-6.5-7.8-3.6zM46.7 99.25C28.6 128.8 27.45 130.9 25.5 139.2c-5.15 21.9 4.95 46.95 23.65 58.45 3.55 2.25 5.75 4.2 5.45 5-.3.7-2.45 6.7-4.8 13.35l-4.3 12.05-4-.75c-44.9-8.8-57.1 26-16.2 46.2 21.75 10.75 46.8 9.9 54.55-1.85 7.25-10.9-1.05-27.1-18.7-36.5-4.15-2.2-6.1-3.8-5.75-4.7.25-.75 2.45-6.75 4.8-13.3l4.25-11.9 10.55.5c25.15 1.15 46.4-12.45 54.9-35.15 3.35-8.95 11.75-67.4 9.95-69.2C138 99.6 67.8 74 64.6 74c-2.05 0-4.6 3.6-17.9 25.25zm52.5-2.65c15.8 5.7 29.2 10.4 29.75 10.4 1.4 0-5.25 48.85-7.8 57.5-11.2 37.95-64.75 42.5-82.2 7-7.7-15.55-6.2-30.5 4.8-47.85l2.45-3.9 7.05.55c8.45.7 18.95 5.4 25.75 11.4 12.1 10.8 18.35 13.8 21.45 10.4 2.85-3.2 1.55-6.1-4.7-10.55-3.15-2.2-8.55-6.25-12-8.95-7.9-6.2-16.7-10.35-25.1-11.9l-6.5-1.2 5.45-8.5c3.05-4.7 6.4-10.2 7.5-12.35 1.5-2.85 2.45-3.65 3.7-3.15.95.35 14.6 5.35 30.4 11.1zM41.05 237.65c.45.45-.3 3.5-1.65 6.75-2.8 6.9-3 9.85-.85 12.05 3.7 3.65 7.45.5 10.45-8.7l2.15-6.8 4.1 2.3c22.25 12.3 22.35 27.55.25 27.6-22.3.05-51.35-19.55-43.85-29.6 3.5-4.65 25.75-7.35 29.4-3.6z"/><path d="M107.95 143.1c-2.5 4.7 2.55 9.95 6.95 7.2 2-1.25 2.65-5.95 1.05-7.85-1.85-2.2-6.7-1.8-8 .65zm88.7-55.8c-20.05 7.4-36.2 13.9-36.7 14.75-1 1.85 7.35 59.15 9.7 66.45 7.4 23.05 27.55 37 53.55 37h12.65l4.6 12.5c5.55 15.2 5.7 13.25-1.45 17.1-22.25 11.85-28.35 33.5-11.85 42 27 13.85 78.4-12.75 71.85-37.2-3.25-12.05-15.65-15.8-41.85-12.7-1.9.25-10.95-18.95-12.1-25.85-.05-.1 2.35-1.5 5.25-3.15 18.85-10.65 30.05-38.25 24.3-59.85-3.5-13.25-34.4-63.7-39.15-64.05-1.75-.1-17.85 5.3-38.8 13zm50.5 20.95c19.4 31.45 22.05 40.4 16.85 56.9-13.4 42.45-75.25 40.1-85.45-3.25-2.25-9.5-2.1-10.9 1.2-10.9 19.9-.1 54.85-24 44.75-30.6-2.95-1.9-3.9-1.45-14 6.95-8.7 7.25-16 10.4-32.75 14.1-1.85.4-2.75.2-2.75-.7 0-.7-1.1-8.25-2.45-16.75-1.35-8.55-2.15-15.8-1.75-16.1.4-.35 13.55-5.25 29.2-10.9 15.7-5.65 29.2-10.65 30-11.1.85-.45 1.8-.85 2.15-.85.35-.05 7.1 10.4 15 23.2zm38.6 130.25c6.2 3.65 5.45 9.45-2.1 16.95-19.65 19.4-64.1 20.8-54.2 1.65 2.95-5.7 19.1-17.75 20-14.9 4.45 13.75 6.45 16.6 10.6 15.3 3.9-1.25 4.3-4.1 1.5-11.35-1.4-3.65-2.55-7.2-2.55-7.85 0-2.9 21.8-2.7 26.75.2z"/><path d="M232.65 113.5c-2.05 2.05-2.05 3.45-.1 6.3 3.35 4.7 10.75.9 8.85-4.6-1.15-3.3-6.2-4.25-8.75-1.7zM147.3 223.8c-.65.4-3.4 5.5-6.1 11.3l-4.9 10.5-9.9 1.3c-17.55 2.35-18.55 5.1-6.35 17.6l8.05 8.25-1.95 11.35c-2.95 17.45-1.2 18.75 14.1 10.65l10.25-5.4 9.5 5.3c10.7 6 10.9 6.05 14 3.55l2.25-1.8-2.05-11.95-2-11.95 8.4-8.6c12.1-12.45 11.55-14.2-5.45-16.75l-11.25-1.7-4.55-9.95c-5.95-12.95-7.55-14.55-12.05-11.7zm9.55 29.5c.7.9 3.4 1.9 6 2.2 2.55.35 5.95.85 7.5 1.15l2.9.55-5.65 5.7c-6.1 6.15-6.4 7.25-4.5 16.1 1.45 6.75 1.1 6.9-6.25 2.4l-6.25-3.8-6.9 3.8c-8.3 4.5-8.05 4.7-6.15-4.35 1.8-8.55 1.45-9.5-6.1-15.65-5.4-4.4-5.1-4.65 5.9-5.9l5.85-.65 3.5-7.6 3.5-7.55 2.65 6c1.5 3.35 3.3 6.75 4 7.6z"/></g></symbol><symbol id="icon-user" viewBox="0 0 96 96"><g fill="#767676"><path d="M43.7 1c-4.2.8-8.9 4.8-10.7 9.1-.7 1.7-1.1 6.5-.8 12.3l.3 9.6H18.3c-9.3 0-14.4.4-14.9 1.1-.8 1.3 1.4 2.9 3.1 2.3 1.5-.6.5 6.9-2.4 18.3-2.9 11.1-2.7 13.8.8 17.4 2.6 2.5 3.7 2.9 8.5 2.9H19v9h-6.9C3.8 83 .7 84.9.7 89.9c0 1.7.5 3.7 1.2 4.4 1.2 1.2 35.8 2.4 38.7 1.3.7-.3 1.1-1.2.8-2.1-.5-1.3-3.4-1.5-19.1-1.5H3.9l.3-2.3.3-2.2h87l.3 2.2c.3 2.3.3 2.3-18 2.5-16.5.3-18.3.5-18.6 2.1-.3 1.6 1 1.7 17.2 1.7 9.6 0 18.6-.4 19.9-.9 2.6-1 4-4.4 3.1-7.8-.6-2.3-5.6-4.9-7.3-3.8-.6.3-1.1.2-1.1-.4 0-.5.5-1.3 1.1-1.7.8-.4 1-3 .7-7.3-1.1-15-12.8-27.3-27.4-28.8-4.9-.5-5.4-.8-5.4-3 0-1.5 1-3.3 2.5-4.5 4.4-3.4 5.5-6.9 5.5-17.1 0-8.1-.3-9.9-2.2-12.7-4.3-6.3-9.9-8.5-18.1-7zm11.1 5c2.9 1.8 6.2 7.1 6.2 10 0 1.6-4.1 1.1-8.7-1-3.9-1.7-4.5-1.7-7.2-.4-4.2 2.1-10.1 3-10.1 1.5 0-.6.6-2.7 1.4-4.6C38.2 7.3 43.3 4 48 4c1.9 0 5 .9 6.8 2zm2.4 14.5c3.4.6 3.8 1 3.8 3.6C61 34.8 50.1 41.4 41.3 36c-3.8-2.3-5.1-4.6-5.9-10.3l-.6-4.3 5.3-1.2c3-.7 6-1.6 6.8-2.1.8-.5 2.3-.3 3.9.5 1.4.7 4.2 1.6 6.4 1.9zM17 39.5c0 2.2-.4 2.5-3.5 2.5-2.8 0-3.5-.4-3.5-1.9 0-1.1.7-2.7 1.6-3.5 2.1-2.2 5.4-.4 5.4 2.9zm8.2-1c.8 3.3 2.3 4.5 5.9 4.5 2.9 0 4.9-1.7 4.9-4.2 0-1.6.3-1.6 2-.6 1.2.8 2 2.4 2 4 0 2.3-.4 2.8-2.5 2.8-3.3 0-13 3.7-14.5 5.5-.7.8-1.5 1.5-1.9 1.5-.3 0-.6-3.8-.6-8.5 0-7.8.1-8.4 2-8.1 1.1.2 2.2 1.4 2.7 3.1zM33 37c0 2.2-2.4 3.2-3.9 1.7-1.9-1.9-1.2-3.5 1.4-3.5 1.7 0 2.5.6 2.5 1.8zm19 7.7c0 3.9-2.9 6-6 4.3-1.4-.7-2-2.1-2-4.3 0-3.1.2-3.2 4-3.2s4 .1 4 3.2zm-35 8.2c0 4.4.4 8.2.9 8.5 1.2.8 3.4-2 2.7-3.3-1-1.6 7.8-7 13.9-8.6 5.7-1.4 5.8-1.4 7.7 1 2.8 3.5 8.9 3.5 11.7-.1 1.9-2.4 2.2-2.5 7.7-1.5C75.1 51.4 85 62.3 85.4 75.2c.2 6.9-1.3 7.8-13 7.8-5.1 0-10.1.3-11.1.6-1.3.4-1.1-.1.8-1.8 1.5-1.3 3.4-3.5 4.3-5 1.4-2.1 2.7-2.8 5.9-3 5.4-.4 5.9-3.1.7-3.8-3.1-.4-3.5-.8-3.5-3.5v-3h-43l.2 4.2c.2 5 2.1 8.8 6.5 13.3 2.1 2.1 2.6 3.1 1.5 2.6-1-.3-4.3-.6-7.4-.6h-5.5l.4-5.8.3-5.7-4-.3C9.8 70.7 7.9 70 6.6 66.9c-1.1-2.5-.9-4.3 1.2-12.4l2.5-9.5H17v7.9zM66 68c0 2.4-2.9 7.7-5.6 10.2-7 6.5-17.8 6.5-24.8 0C32.9 75.7 30 70.4 30 68c0-.6 6.3-1 18-1s18 .4 18 1z"/><path d="M44.2 30.8c.5 2.3 7.1 2.4 7.6.1.2-1.3-.6-1.7-3.8-1.7-3.3-.1-4.1.2-3.8 1.6zm2.2 62.3c-1 1.7 1.3 3.6 2.7 2.2 1.2-1.2.4-3.3-1.1-3.3-.5 0-1.2.5-1.6 1.1z"/></g></symbol><symbol id="icon-search" viewBox="0 0 96 96"><g fill="#767676"><path d="M33.4 1.1C19.9 2.4 7.2 12.8 2.4 26.4c-2.3 6.4-2 21 .6 28C6 62.3 14.3 71 22.8 75.2c6.2 3.1 7.4 3.3 16.7 3.3 9.3 0 10.6-.2 16.5-3.2 5.8-2.9 6.6-3 8.1-1.7.9.8 1.5 2.3 1.3 3.2-.3 1.1 2.4 4.6 8 10.1 8.2 8.1 8.6 8.4 13.1 8.4 6.2 0 8.7-2.4 8.7-8.7.1-4.6-.1-4.9-8.3-13.2-6.1-6.1-8.9-8.3-10.3-8-1 .3-2.5-.2-3.3-1-1.2-1.2-1-2.2 1.7-7.7 5.2-10.7 5.2-24.4-.2-35.1-3-6-11.4-14.3-17.5-17.2-6.1-3-14.7-4.2-23.9-3.3zm21.4 6.3c7.5 3.8 13.3 9.5 16.8 16.3 2.6 5.3 2.9 6.7 2.9 15.8 0 8.9-.3 10.6-2.8 15.7-3.6 7.4-11.9 15-19.5 17.8-7.9 3-20.5 2.6-27.7-1C4 62-2.3 36.6 11 18.2c3.7-5.2 8.6-8.8 15.7-11.8 8.2-3.5 20.3-3 28.1 1zm16.4 60c1.6 1.2 1.6 1.4-.6 3.5l-2.4 2.3-1.2-2.1c-.8-1.6-.8-2.5.2-3.6 1.6-1.8 1.9-1.8 4-.1zm5.1 8.8c-3.6 3.6-4.4 4-5.8 2.8-1.4-1.2-1.2-1.8 2.7-5.7 3.8-3.8 4.4-4.1 5.7-2.8 1.4 1.4 1.1 2-2.6 5.7zm11.6 3.3c4.4 4.8 5.2 8.3 2.5 10.9-2.9 2.9-6.6 1.9-11.4-2.9L74.6 83l3.9-4c2.1-2.2 4.2-4 4.6-4 .3 0 2.5 2 4.8 4.5z"/><path d="M30 10.6c-4.9 1.8-10.4 5.5-13.5 9.2-2.8 3.4-6.4 10.5-5.9 11.4 1.1 1.8 3.2.6 4.5-2.4.7-1.8 2.9-5 4.9-7.2 16.6-18.5 47.5-5.3 45.8 19.6-.5 7.2-2.5 12.1-7.1 16.8l-3.2 3.3-.3-5.4c-.5-8.4-1.4-8.9-15.1-8.9-14.8 0-16.1.7-16.1 8.8v5.6l-3.4-3.3c-1.9-1.8-4.2-5-5.1-7.2-2.2-4.8-5.1-5.4-4.1-.9.8 4.4 5.8 11.1 10.4 14.4C37.2 75 58.6 69.7 66.7 53.2c3.8-7.8 4-19.2.4-26.6-3-6.1-8.7-11.8-14.8-14.7-6-2.9-16.2-3.5-22.3-1.3zm21.8 46.7c.3 5.7.3 5.8-3.2 7.2-4.4 1.9-13.6 1.9-17.9.1-3.4-1.4-3.4-1.5-2.7-12.9 0-.4 5.3-.6 11.8-.5l11.7.3.3 5.8z"/><path d="M35.6 19c-9.6 2.9-12.2 15.9-4.5 22.4 6.5 5.5 14.7 4 19.7-3.4 6.5-9.5-3.9-22.4-15.2-19zm8.5 4.5c5.5 2.9 6.5 10 2 14.6-7.8 7.7-20-1.4-14.7-11 1.5-2.6 5.1-5 7.9-5.1 1 0 3.1.7 4.8 1.5zM9.7 38.6c-1.4 1.4-.7 3.5 1.1 3.2.9-.2 1.7-1 1.7-1.7 0-1.6-1.8-2.5-2.8-1.5z"/></g></symbol><symbol id="icon-search-fill" viewBox="0 0 96 96"><g fill="#ff644b"><path d="M33.4 1.1C19.9 2.4 7.2 12.8 2.4 26.4c-2.3 6.4-2 21 .6 28C6 62.3 14.3 71 22.8 75.2c6.2 3.1 7.4 3.3 16.7 3.3 9.3 0 10.6-.2 16.5-3.2 5.8-2.9 6.6-3 8.1-1.7.9.8 1.5 2.3 1.3 3.2-.3 1.1 2.4 4.6 8 10.1 8.2 8.1 8.6 8.4 13.1 8.4 6.2 0 8.7-2.4 8.7-8.7.1-4.6-.1-4.9-8.3-13.2-6.1-6.1-8.9-8.3-10.3-8-1 .3-2.5-.2-3.3-1-1.2-1.2-1-2.2 1.7-7.7 5.2-10.7 5.2-24.4-.2-35.1-3-6-11.4-14.3-17.5-17.2-6.1-3-14.7-4.2-23.9-3.3zm21.4 6.3c7.5 3.8 13.3 9.5 16.8 16.3 2.6 5.3 2.9 6.7 2.9 15.8 0 8.9-.3 10.6-2.8 15.7-3.6 7.4-11.9 15-19.5 17.8-7.9 3-20.5 2.6-27.7-1C4 62-2.3 36.6 11 18.2c3.7-5.2 8.6-8.8 15.7-11.8 8.2-3.5 20.3-3 28.1 1zm16.4 60c1.6 1.2 1.6 1.4-.6 3.5l-2.4 2.3-1.2-2.1c-.8-1.6-.8-2.5.2-3.6 1.6-1.8 1.9-1.8 4-.1zm5.1 8.8c-3.6 3.6-4.4 4-5.8 2.8-1.4-1.2-1.2-1.8 2.7-5.7 3.8-3.8 4.4-4.1 5.7-2.8 1.4 1.4 1.1 2-2.6 5.7zm11.6 3.3c4.4 4.8 5.2 8.3 2.5 10.9-2.9 2.9-6.6 1.9-11.4-2.9L74.6 83l3.9-4c2.1-2.2 4.2-4 4.6-4 .3 0 2.5 2 4.8 4.5z"/><path d="M30 10.6c-4.9 1.8-10.4 5.5-13.5 9.2-2.8 3.4-6.4 10.5-5.9 11.4 1.1 1.8 3.2.6 4.5-2.4.7-1.8 2.9-5 4.9-7.2 16.6-18.5 47.5-5.3 45.8 19.6-.5 7.2-2.5 12.1-7.1 16.8l-3.2 3.3-.3-5.4c-.5-8.4-1.4-8.9-15.1-8.9-14.8 0-16.1.7-16.1 8.8v5.6l-3.4-3.3c-1.9-1.8-4.2-5-5.1-7.2-2.2-4.8-5.1-5.4-4.1-.9.8 4.4 5.8 11.1 10.4 14.4C37.2 75 58.6 69.7 66.7 53.2c3.8-7.8 4-19.2.4-26.6-3-6.1-8.7-11.8-14.8-14.7-6-2.9-16.2-3.5-22.3-1.3zm21.8 46.7c.3 5.7.3 5.8-3.2 7.2-4.4 1.9-13.6 1.9-17.9.1-3.4-1.4-3.4-1.5-2.7-12.9 0-.4 5.3-.6 11.8-.5l11.7.3.3 5.8z"/><path d="M35.6 19c-9.6 2.9-12.2 15.9-4.5 22.4 6.5 5.5 14.7 4 19.7-3.4 6.5-9.5-3.9-22.4-15.2-19zm8.5 4.5c5.5 2.9 6.5 10 2 14.6-7.8 7.7-20-1.4-14.7-11 1.5-2.6 5.1-5 7.9-5.1 1 0 3.1.7 4.8 1.5zM9.7 38.6c-1.4 1.4-.7 3.5 1.1 3.2.9-.2 1.7-1 1.7-1.7 0-1.6-1.8-2.5-2.8-1.5z"/></g></symbol><symbol xmlns="http://www.w3.org/2000/svg" id="icon-message" viewBox="0 0 300 300"><g fill="#767676"><path d="M144.5 1.45c-4.8 1.75-9.25 6.7-10.1 11.25-2.75 14.6 14.4 25.05 25.6 15.65 13.9-11.7 1.6-33-15.5-26.9zM154 12c1.1 1.1 2 2.9 2 4s-.9 2.9-2 4-2.9 2-4 2-2.9-.9-4-2-2-2.9-2-4 .9-2.9 2-4 2.9-2 4-2 2.9.9 4 2zM29.05 19.3l-5 9.35-9 4.7c-13.25 7-13.15 9.7.45 17.05 7.6 4.05 8.2 4.7 12.2 11.7 8.85 15.7 10.35 15.85 17.8 2.25l5-9.1 9-4.95c13.85-7.65 13.4-10.05-3.45-18.95-4.85-2.55-5.9-3.7-9.5-10.45-7.9-14.85-10.25-15.05-17.5-1.6zM40.5 31c2 3.95 3.55 5.5 7.5 7.5 6.2 3.15 6.2 3.6.05 6.45-4 1.9-5.45 3.35-7.85 7.8l-2.95 5.5-2.85-5.4c-2.35-4.3-4-5.95-8.3-8.25l-5.45-2.9 5.5-2.75c4-2.05 5.95-3.8 7.4-6.6 3.9-7.75 3.75-7.7 6.95-1.35zm217.75-18.2c-.95 1.65-3.3 5.85-5.2 9.4-3.25 6.1-3.85 6.65-12.3 11.2-13.3 7.15-13.3 9.7.05 16.85l8.9 4.75 4.8 8.95c7.05 13.35 9.7 13.35 16.8.1 4.75-8.9 4.8-8.95 13.1-13.45 14.05-7.7 14.15-10.05.65-17.3l-8.9-4.75-4.8-9.05c-5.7-10.55-9.55-12.55-13.1-6.7zM266 30.95c1.9 4.05 3.25 5.45 7.65 7.75 6.45 3.4 6.45 3.25.25 6.15-4.25 2-5.45 3.2-7.65 7.75-3.25 6.6-3.25 6.6-6.4.15-2.2-4.45-3.4-5.7-7.75-7.7-5.95-2.8-6.2-3.35-1.95-5.1 4.7-1.95 8.3-5.4 10.3-9.9 2.35-5.15 2.7-5.1 5.55.9zM97.65 12.85c-2.55 2.8-2.1 4.45 4.35 16.6 6.1 11.4 7.65 12.95 11.7 11.45 4.2-1.55 3.75-4.3-2.7-16.4-7.15-13.35-9.75-15.65-13.35-11.65zm98.55-.3c-1.2.85-2.2 1.9-2.2 2.35 0 .45-2.45 5.35-5.5 10.9-6.5 11.95-5.6 18.5 2.1 15.55 1.95-.8 13.65-22.35 13.65-25.25 0-4.35-4.2-6.2-8.05-3.55zm-49 30c-3.1 2.2-3.45 31-.35 33.8 6.1 5.5 8.15 1.25 8.15-16.85 0-15.65-.75-18.5-5-18.5-.3 0-1.55.7-2.8 1.55zm-28 9c-3.3 2.3-2.8 4.5 3.85 17 6.2 11.6 8.15 13.5 11.85 11.5 3.9-2.1 3.5-4.6-2.4-15.8-7.25-13.8-9.15-15.6-13.3-12.7zm56 .25c-3.5 3.5-13.35 23.2-12.65 25.3.85 2.7 4.7 4.4 7 3.15 2.3-1.3 13.45-21.9 13.45-24.85 0-4.2-4.9-6.5-7.8-3.6zM46.7 99.25C28.6 128.8 27.45 130.9 25.5 139.2c-5.15 21.9 4.95 46.95 23.65 58.45 3.55 2.25 5.75 4.2 5.45 5-.3.7-2.45 6.7-4.8 13.35l-4.3 12.05-4-.75c-44.9-8.8-57.1 26-16.2 46.2 21.75 10.75 46.8 9.9 54.55-1.85 7.25-10.9-1.05-27.1-18.7-36.5-4.15-2.2-6.1-3.8-5.75-4.7.25-.75 2.45-6.75 4.8-13.3l4.25-11.9 10.55.5c25.15 1.15 46.4-12.45 54.9-35.15 3.35-8.95 11.75-67.4 9.95-69.2C138 99.6 67.8 74 64.6 74c-2.05 0-4.6 3.6-17.9 25.25zm52.5-2.65c15.8 5.7 29.2 10.4 29.75 10.4 1.4 0-5.25 48.85-7.8 57.5-11.2 37.95-64.75 42.5-82.2 7-7.7-15.55-6.2-30.5 4.8-47.85l2.45-3.9 7.05.55c8.45.7 18.95 5.4 25.75 11.4 12.1 10.8 18.35 13.8 21.45 10.4 2.85-3.2 1.55-6.1-4.7-10.55-3.15-2.2-8.55-6.25-12-8.95-7.9-6.2-16.7-10.35-25.1-11.9l-6.5-1.2 5.45-8.5c3.05-4.7 6.4-10.2 7.5-12.35 1.5-2.85 2.45-3.65 3.7-3.15.95.35 14.6 5.35 30.4 11.1zM41.05 237.65c.45.45-.3 3.5-1.65 6.75-2.8 6.9-3 9.85-.85 12.05 3.7 3.65 7.45.5 10.45-8.7l2.15-6.8 4.1 2.3c22.25 12.3 22.35 27.55.25 27.6-22.3.05-51.35-19.55-43.85-29.6 3.5-4.65 25.75-7.35 29.4-3.6z"/><path d="M107.95 143.1c-2.5 4.7 2.55 9.95 6.95 7.2 2-1.25 2.65-5.95 1.05-7.85-1.85-2.2-6.7-1.8-8 .65zm88.7-55.8c-20.05 7.4-36.2 13.9-36.7 14.75-1 1.85 7.35 59.15 9.7 66.45 7.4 23.05 27.55 37 53.55 37h12.65l4.6 12.5c5.55 15.2 5.7 13.25-1.45 17.1-22.25 11.85-28.35 33.5-11.85 42 27 13.85 78.4-12.75 71.85-37.2-3.25-12.05-15.65-15.8-41.85-12.7-1.9.25-10.95-18.95-12.1-25.85-.05-.1 2.35-1.5 5.25-3.15 18.85-10.65 30.05-38.25 24.3-59.85-3.5-13.25-34.4-63.7-39.15-64.05-1.75-.1-17.85 5.3-38.8 13zm50.5 20.95c19.4 31.45 22.05 40.4 16.85 56.9-13.4 42.45-75.25 40.1-85.45-3.25-2.25-9.5-2.1-10.9 1.2-10.9 19.9-.1 54.85-24 44.75-30.6-2.95-1.9-3.9-1.45-14 6.95-8.7 7.25-16 10.4-32.75 14.1-1.85.4-2.75.2-2.75-.7 0-.7-1.1-8.25-2.45-16.75-1.35-8.55-2.15-15.8-1.75-16.1.4-.35 13.55-5.25 29.2-10.9 15.7-5.65 29.2-10.65 30-11.1.85-.45 1.8-.85 2.15-.85.35-.05 7.1 10.4 15 23.2zm38.6 130.25c6.2 3.65 5.45 9.45-2.1 16.95-19.65 19.4-64.1 20.8-54.2 1.65 2.95-5.7 19.1-17.75 20-14.9 4.45 13.75 6.45 16.6 10.6 15.3 3.9-1.25 4.3-4.1 1.5-11.35-1.4-3.65-2.55-7.2-2.55-7.85 0-2.9 21.8-2.7 26.75.2z"/><path d="M232.65 113.5c-2.05 2.05-2.05 3.45-.1 6.3 3.35 4.7 10.75.9 8.85-4.6-1.15-3.3-6.2-4.25-8.75-1.7zM147.3 223.8c-.65.4-3.4 5.5-6.1 11.3l-4.9 10.5-9.9 1.3c-17.55 2.35-18.55 5.1-6.35 17.6l8.05 8.25-1.95 11.35c-2.95 17.45-1.2 18.75 14.1 10.65l10.25-5.4 9.5 5.3c10.7 6 10.9 6.05 14 3.55l2.25-1.8-2.05-11.95-2-11.95 8.4-8.6c12.1-12.45 11.55-14.2-5.45-16.75l-11.25-1.7-4.55-9.95c-5.95-12.95-7.55-14.55-12.05-11.7zm9.55 29.5c.7.9 3.4 1.9 6 2.2 2.55.35 5.95.85 7.5 1.15l2.9.55-5.65 5.7c-6.1 6.15-6.4 7.25-4.5 16.1 1.45 6.75 1.1 6.9-6.25 2.4l-6.25-3.8-6.9 3.8c-8.3 4.5-8.05 4.7-6.15-4.35 1.8-8.55 1.45-9.5-6.1-15.65-5.4-4.4-5.1-4.65 5.9-5.9l5.85-.65 3.5-7.6 3.5-7.55 2.65 6c1.5 3.35 3.3 6.75 4 7.6z"/></g></symbol><symbol id="icon-user-fill" viewBox="0 0 96 96"><g fill="#ff644b"><path d="M43.7 1c-4.2.8-8.9 4.8-10.7 9.1-.7 1.7-1.1 6.5-.8 12.3l.3 9.6H18.3c-9.3 0-14.4.4-14.9 1.1-.8 1.3 1.4 2.9 3.1 2.3 1.5-.6.5 6.9-2.4 18.3-2.9 11.1-2.7 13.8.8 17.4 2.6 2.5 3.7 2.9 8.5 2.9H19v9h-6.9C3.8 83 .7 84.9.7 89.9c0 1.7.5 3.7 1.2 4.4 1.2 1.2 35.8 2.4 38.7 1.3.7-.3 1.1-1.2.8-2.1-.5-1.3-3.4-1.5-19.1-1.5H3.9l.3-2.3.3-2.2h87l.3 2.2c.3 2.3.3 2.3-18 2.5-16.5.3-18.3.5-18.6 2.1-.3 1.6 1 1.7 17.2 1.7 9.6 0 18.6-.4 19.9-.9 2.6-1 4-4.4 3.1-7.8-.6-2.3-5.6-4.9-7.3-3.8-.6.3-1.1.2-1.1-.4 0-.5.5-1.3 1.1-1.7.8-.4 1-3 .7-7.3-1.1-15-12.8-27.3-27.4-28.8-4.9-.5-5.4-.8-5.4-3 0-1.5 1-3.3 2.5-4.5 4.4-3.4 5.5-6.9 5.5-17.1 0-8.1-.3-9.9-2.2-12.7-4.3-6.3-9.9-8.5-18.1-7zm11.1 5c2.9 1.8 6.2 7.1 6.2 10 0 1.6-4.1 1.1-8.7-1-3.9-1.7-4.5-1.7-7.2-.4-4.2 2.1-10.1 3-10.1 1.5 0-.6.6-2.7 1.4-4.6C38.2 7.3 43.3 4 48 4c1.9 0 5 .9 6.8 2zm2.4 14.5c3.4.6 3.8 1 3.8 3.6C61 34.8 50.1 41.4 41.3 36c-3.8-2.3-5.1-4.6-5.9-10.3l-.6-4.3 5.3-1.2c3-.7 6-1.6 6.8-2.1.8-.5 2.3-.3 3.9.5 1.4.7 4.2 1.6 6.4 1.9zM17 39.5c0 2.2-.4 2.5-3.5 2.5-2.8 0-3.5-.4-3.5-1.9 0-1.1.7-2.7 1.6-3.5 2.1-2.2 5.4-.4 5.4 2.9zm8.2-1c.8 3.3 2.3 4.5 5.9 4.5 2.9 0 4.9-1.7 4.9-4.2 0-1.6.3-1.6 2-.6 1.2.8 2 2.4 2 4 0 2.3-.4 2.8-2.5 2.8-3.3 0-13 3.7-14.5 5.5-.7.8-1.5 1.5-1.9 1.5-.3 0-.6-3.8-.6-8.5 0-7.8.1-8.4 2-8.1 1.1.2 2.2 1.4 2.7 3.1zM33 37c0 2.2-2.4 3.2-3.9 1.7-1.9-1.9-1.2-3.5 1.4-3.5 1.7 0 2.5.6 2.5 1.8zm19 7.7c0 3.9-2.9 6-6 4.3-1.4-.7-2-2.1-2-4.3 0-3.1.2-3.2 4-3.2s4 .1 4 3.2zm-35 8.2c0 4.4.4 8.2.9 8.5 1.2.8 3.4-2 2.7-3.3-1-1.6 7.8-7 13.9-8.6 5.7-1.4 5.8-1.4 7.7 1 2.8 3.5 8.9 3.5 11.7-.1 1.9-2.4 2.2-2.5 7.7-1.5C75.1 51.4 85 62.3 85.4 75.2c.2 6.9-1.3 7.8-13 7.8-5.1 0-10.1.3-11.1.6-1.3.4-1.1-.1.8-1.8 1.5-1.3 3.4-3.5 4.3-5 1.4-2.1 2.7-2.8 5.9-3 5.4-.4 5.9-3.1.7-3.8-3.1-.4-3.5-.8-3.5-3.5v-3h-43l.2 4.2c.2 5 2.1 8.8 6.5 13.3 2.1 2.1 2.6 3.1 1.5 2.6-1-.3-4.3-.6-7.4-.6h-5.5l.4-5.8.3-5.7-4-.3C9.8 70.7 7.9 70 6.6 66.9c-1.1-2.5-.9-4.3 1.2-12.4l2.5-9.5H17v7.9zM66 68c0 2.4-2.9 7.7-5.6 10.2-7 6.5-17.8 6.5-24.8 0C32.9 75.7 30 70.4 30 68c0-.6 6.3-1 18-1s18 .4 18 1z"/><path d="M44.2 30.8c.5 2.3 7.1 2.4 7.6.1.2-1.3-.6-1.7-3.8-1.7-3.3-.1-4.1.2-3.8 1.6zm2.2 62.3c-1 1.7 1.3 3.6 2.7 2.2 1.2-1.2.4-3.3-1.1-3.3-.5 0-1.2.5-1.6 1.1z"/></g></symbol></svg>