<svg viewBox="0 0 64 64" xmlns="http://www.w3.org/2000/svg" xml:space="preserve" style="fill-rule:evenodd;clip-rule:evenodd;stroke-linecap:round;stroke-linejoin:round;stroke-miterlimit:2"><path style="fill:none" d="M0 0h64v64H0z"/><path d="M20.224 44.097a4.69 4.69 0 0 0 4.682 4.898C32.148 49 46.634 49 53.702 49a4.69 4.69 0 0 0 4.691-4.583c.125-5.957-2.199-15.605-18.685-15.605-16.194 0-19.214 9.31-19.484 15.285z" style="fill:none;stroke:#767676;stroke-width:2px"/><path d="M46.197 29.875c.774 1.147 2.176 3.871 2.661 9.031M37.702 29.201s2.505 2.435 3.187 9.705M30.88 30.937c.754 1.479 1.668 4.005 2.04 7.969" style="fill:none;stroke:#767676;stroke-width:2px"/><path d="M39.892 28.438a4.986 4.986 0 0 0 .68-5.901c-2.99-5.175-9.864-11.873-23.809-3.746-13.684 7.975-11.996 17.298-9.319 22.66a4.985 4.985 0 0 0 6.967 2.076l1.575-.918" style="fill:none;stroke:#767676;stroke-width:2px"/><path d="M22.905 16.442c1.448-.006 4.229 1.049 6.846 6.463M15.226 20.137c.211-.582 4.025-.903 7.64 6.78M10.206 25.072c2.091.588 4.552 2.134 5.775 5.858" style="fill:none;stroke:#767676;stroke-width:2px"/></svg>