<svg viewBox="0 0 64 64" xmlns="http://www.w3.org/2000/svg" xml:space="preserve" style="fill-rule:evenodd;clip-rule:evenodd;stroke-linecap:round;stroke-linejoin:round;stroke-miterlimit:2"><path style="fill:none" d="M0 0h64v64H0z"/><path d="m46.205 12.56-15.283 4.095 5.319 19.434a7.512 7.512 0 0 0 9.19 5.273h.002a8.3 8.3 0 0 0 5.053-3.889 8.301 8.301 0 0 0 .807-6.325L46.205 12.56zM45.883 41.349l3.806 14.205M45.114 56.78l9.15-2.452M30.264 16.095l-12.756-3.418-5.11 19.49a7.512 7.512 0 0 0 5.322 9.162h.002a8.303 8.303 0 0 0 10.181-5.915l2.264-8.634M18.117 41.543l-3.806 14.205M9.736 54.522l9.15 2.452M33.5 11.5 35 9M30.5 12l-1-1.5" style="fill:none;stroke:#767676;stroke-width:2px"/></svg>