<svg viewBox="0 0 64 64" xmlns="http://www.w3.org/2000/svg" xml:space="preserve" style="fill-rule:evenodd;clip-rule:evenodd;stroke-linecap:round;stroke-linejoin:round;stroke-miterlimit:2"><path style="fill:none" d="M0 0h64v64H0z"/><path d="M36.06 28.535c-1.969-3.85-1.082-8.999 2.492-12.573 4.325-4.325 10.957-4.716 14.802-.871 3.844 3.844 3.454 10.477-.871 14.802-3.574 3.574-8.724 4.461-12.574 2.492L23.752 50.52a3.09 3.09 0 0 1-4.496.13l-1.461-1.462a3.093 3.093 0 0 1 .129-4.496L36.06 28.535z" style="fill:none;stroke:#444f58;stroke-width:2px"/><path d="M52.139 18.667s2.104 6.245-3.695 9.851M25.863 24.264s.441-6.576-6.086-8.582" style="fill:none;stroke:#444f58;stroke-width:2px"/><path d="m39.5 39.085 6.576 5.607a3.096 3.096 0 0 1 .129 4.496l-1.461 1.462a3.09 3.09 0 0 1-4.496-.13l-5.273-6.356m-7.5-7.981-3.384-3.798c-3.85 1.969-9 1.082-12.574-2.492-4.325-4.325-4.715-10.958-.871-14.802 3.845-3.845 10.477-3.454 14.802.871 3.574 3.574 4.461 8.723 2.492 12.573L32 32.152" style="fill:none;stroke:#444f58;stroke-width:2px"/></svg>