<svg xmlns="http://www.w3.org/2000/svg" xml:space="preserve" width="2048" height="2048" style="shape-rendering:geometricPrecision;text-rendering:geometricPrecision;image-rendering:optimizeQuality;fill-rule:evenodd;clip-rule:evenodd"><defs><style>.fil0{fill:#212121;fill-rule:nonzero}</style></defs><g id="Layer_x0020_1"><path class="fil0" d="M947.2 1478.1c-3.126 28.394-21.814 51.67-49.494 66.347-24.715 13.105-57.149 19.322-91.436 15.546-36.342-4-61.185-17.639-76.672-36.965-15.997-19.96-21.244-44.838-18.372-70.922 3.07-27.877 14.84-52.343 37.439-68.302 19.023-13.432 44.963-20.035 78.81-16.308 34.274 3.774 64.6 16.927 85.918 35.135 23.785 20.316 36.932 47.081 33.807 75.47zm-71.808 23.972c13.757-7.294 22.906-17.613 24.184-29.223 1.278-11.613-5.43-23.697-17.307-33.842-14.345-12.252-35.493-21.184-60.045-23.887-21.171-2.332-36.149.917-45.997 7.87-10.265 7.25-15.756 19.654-17.376 34.367-1.532 13.917.737 26.532 8.06 35.671 7.834 9.776 22.126 16.865 44.61 19.34 24.536 2.703 47.15-1.43 63.872-10.296zM646.744 1414.38c-3.67 5.433-7.264 10.47-10.103 14.447-4.07 5.704-5.941 8.326-6.689 10.704-.918 2.92-1.523 7.536-2.642 16.068-1.198 9.148-2.913 22.22-6.021 41.343-3.306 20.326-16.486 31.132-32.028 34.308-6.678 1.364-13.686 1.186-20.348-.35a51.186 51.186 0 0 1-18.493-8.432c-3.778-2.751-7.163-6.005-9.973-9.71-4.134 1.828-8.531 2.987-13.018 3.518-6.06.718-12.255.222-18.118-1.363-5.907-1.597-11.543-4.305-16.434-7.996-3.485-2.629-6.601-5.716-9.2-9.22-4.014 1.724-8.269 2.822-12.608 3.337-6.06.718-12.254.222-18.118-1.364-5.907-1.597-11.542-4.306-16.434-7.996-13.17-9.936-21.1-26.428-15.497-47.147 5.41-20.01 9.035-37.511 12.256-53.07 7.33-35.41 12.794-61.795 29.763-80.045 29.326-31.545 62.74-36 93.61-26.317 15.411 4.833 29.98 13.31 42.842 23.653 12.56 10.1 23.582 22.067 32.182 34.152 18.791 26.41 26.086 55.17 15.07 71.48zm-36.104-4.054a577.758 577.758 0 0 0 9.605-13.82c3.202-4.743-3.218-19.147-14.573-35.106-6.99-9.823-15.956-19.556-26.181-27.778-9.925-7.98-20.952-14.453-32.344-18.026-19.823-6.219-41.45-3.18-60.734 17.564-10.933 11.758-15.61 34.351-21.887 64.671-3.423 16.534-7.274 35.128-12.632 54.944-1.655 6.12.378 10.762 3.873 13.399 1.587 1.197 3.452 2.087 5.433 2.622 2.025.548 4.12.725 6.12.487 4.342-.515 8.425-3.466 10.06-9.515l30.874 8.25c-1.656 6.12.378 10.763 3.873 13.399 1.587 1.197 3.453 2.087 5.433 2.622 2.023.547 4.118.724 6.12.487 4.343-.514 8.427-3.467 10.062-9.514l30.874 8.249c-1.617 5.98.74 10.68 4.553 13.456 1.969 1.434 4.347 2.477 6.868 3.059 2.4.553 4.767.65 6.848.224 3.274-.668 6.098-3.226 6.904-8.185 3.14-19.31 4.763-31.684 5.896-40.34 1.382-10.536 2.13-16.233 3.766-21.446 2.261-7.194 5.072-11.133 11.189-19.703z"/><path class="fil0" d="M716.555 1476.8c13.15 1.45 24.989-8.036 26.438-21.187 1.449-13.15-8.036-24.988-21.187-26.437l-93.62-10.311c-13.15-1.45-24.989 8.036-26.438 21.186-1.449 13.15 8.036 24.989 21.187 26.438l93.62 10.311zm-285.356-31.427c13.15 1.45 24.989-8.036 26.438-21.186 1.449-13.15-8.036-24.989-21.187-26.438l-67.68-7.454c-13.151-1.45-24.99 8.036-26.438 21.186-1.45 13.15 8.036 24.99 21.186 26.438l67.681 7.454zM953.489 481.372c4.814-12.322-1.27-26.217-13.593-31.031s-26.217 1.27-31.031 13.593c-18.172 46.538-45.652 88.161-80.197 122.632-34.622 34.544-76.311 61.958-122.82 80-12.322 4.763-18.45 18.615-13.686 30.938 4.763 12.322 18.615 18.45 30.938 13.686a404.102 404.102 0 0 0 139.319-90.686c39.281-39.196 70.488-86.421 91.07-139.132z"/><path class="fil0" d="M953.769 464.778c-4.349-12.477-17.992-19.067-30.469-14.718-12.477 4.35-19.066 17.992-14.718 30.47a356.231 356.231 0 0 1 16.642 69.714c3.188 23.716 3.954 47.737 2.327 71.685-.88 13.202 9.11 24.62 22.313 25.5 13.203.88 24.62-9.112 25.5-22.314 1.83-26.93.94-54.152-2.702-81.247a404.25 404.25 0 0 0-18.893-79.09zM1352.3 711.381c12.426 4.556 26.195-1.824 30.75-14.25 4.556-12.426-1.824-26.195-14.25-30.75-59.645-21.908-113.55-53.027-158.778-90.897-44.965-37.647-81.268-81.822-105.992-130.08-6.006-11.753-20.404-16.41-32.157-10.405-11.753 6.006-16.411 20.404-10.405 32.157 27.78 54.224 68.122 103.484 117.803 145.08 49.414 41.375 108.16 75.317 173.029 99.145z"/><path class="fil0" d="M937.115 604.303c-10.613 7.92-12.796 22.949-4.876 33.562 7.92 10.614 22.95 12.796 33.563 4.876 26.98-20.142 54.094-47.531 77.965-77.626 24.133-30.424 45.106-63.824 59.4-95.466 5.435-12.063.062-26.251-12-31.687-12.063-5.435-26.252-.062-31.687 12-12.677 28.064-31.47 57.93-53.212 85.34-21.358 26.924-45.42 51.283-69.153 69z"/><path class="fil0" d="M1024.06 264c101.511 0 193.415 41.148 259.938 107.673 66.525 66.523 107.673 158.427 107.673 259.938 0 101.51-41.148 193.414-107.673 259.938-66.525 66.523-158.428 107.672-259.938 107.672-101.51 0-193.414-41.148-259.938-107.672-66.525-66.525-107.673-158.428-107.673-259.938 0-101.511 41.148-193.415 107.673-259.938C830.645 305.148 922.549 264 1024.06 264zm226.001 141.611c-57.835-57.836-137.74-93.61-226.001-93.61-88.26 0-168.165 35.774-226.001 93.61-57.836 57.835-93.61 137.74-93.61 226.001 0 88.26 35.774 168.164 93.61 226.001 57.836 57.835 137.741 93.61 226.001 93.61 88.26 0 168.164-35.775 226.001-93.61 57.836-57.836 93.61-137.741 93.61-226.001 0-88.26-35.774-168.165-93.61-226.001z"/><path class="fil0" d="M648.784 464.116c-11.701-6.16-26.184-1.67-32.344 10.031-6.161 11.701-1.67 26.184 10.03 32.345l47.601 25.03c11.702 6.16 26.184 1.67 32.345-10.032 6.16-11.7 1.67-26.184-10.031-32.344l-47.601-25.03z"/><path class="fil0" d="M474.176 341.32c39.12-12.156 80.817-1.296 117.408 26.31 34.25 25.84 64.28 66.838 82.77 117.04l.032-.013c4.58 12.437-1.791 26.235-14.228 30.814-7.856 2.893-16.255 1.415-22.53-3.2-17.507-10.817-36.72-17.997-56.514-20.872-19.456-2.825-39.495-1.515-59.038 4.557-19.559 6.078-36.762 16.308-51.086 29.567-15.029 13.911-27.019 31.291-35.374 50.85l-22.031-9.375 22.07 9.427c-5.206 12.188-19.31 17.85-31.498 12.643-7.428-3.174-12.432-9.653-14.029-16.988-12.967-51.424-11.382-101.874 2.138-142.423 14.518-43.543 42.749-76.167 81.91-88.337zm88.532 64.56c-24.444-18.441-50.99-26.104-74.47-18.809-23.439 7.284-40.932 28.6-50.597 57.586-5.477 16.424-8.42 35.145-8.556 55.212a189.14 189.14 0 0 1 9.467-9.407c19.533-18.08 42.924-32.012 69.462-40.257 26.55-8.25 53.649-10.048 79.85-6.244 4.398.64 8.77 1.436 13.11 2.385-11.459-16.358-24.466-30.054-38.266-40.466zM1559.87 387.071c-23.48-7.296-50.026.367-74.469 18.81-13.8 10.41-26.807 24.107-38.266 40.465 4.34-.95 8.712-1.746 13.109-2.385 26.202-3.804 53.3-2.006 79.85 6.244 26.538 8.245 49.93 22.176 69.463 40.256a189.14 189.14 0 0 1 9.466 9.408c-.136-20.067-3.079-38.788-8.556-55.212-9.665-28.987-27.158-50.302-50.597-57.586zm-103.344-19.442c36.59-27.605 78.287-38.465 117.406-26.31 39.162 12.17 67.393 44.795 81.91 88.338 13.52 40.55 15.106 91 2.138 142.423-1.596 7.335-6.6 13.814-14.029 16.988-12.187 5.206-26.291-.455-31.497-12.643l22.07-9.427-22.031 9.375c-8.355-19.559-20.346-36.939-35.374-50.85-14.325-13.259-31.528-23.49-51.087-29.567-19.542-6.073-39.582-7.382-59.037-4.557-19.795 2.875-39.007 10.055-56.515 20.872-6.275 4.615-14.674 6.092-22.53 3.2-12.436-4.58-18.807-18.377-14.228-30.814l.033.012c18.49-50.202 48.52-91.199 82.77-117.04z"/><path class="fil0" d="M1421.64 506.491c11.701-6.16 16.192-20.643 10.031-32.344-6.16-11.702-20.643-16.192-32.344-10.032l-47.601 25.03c-11.701 6.16-16.192 20.644-10.031 32.345 6.16 11.701 20.643 16.192 32.344 10.03l47.601-25.029zM1346 1271.68c-14.291-54.39-54.867-100.296-109.74-133.259-59.154-35.535-134.549-55.88-212.069-55.88-77.97 0-153.326 20.739-212.46 56.736-55.433 33.744-96.318 80.684-110.815 135.98l-22.104 84.308c-4.916-13.026-11.834-25.324-19.29-35.804a206.128 206.128 0 0 0-17.443-21.313l10.418-39.736c18.006-68.682 67.087-125.946 133.162-166.168 66.897-40.724 151.515-64.185 238.532-64.185 86.38 0 170.916 22.987 237.748 63.133 65.746 39.495 114.68 95.706 132.48 163.447l54.843 208.72a25.055 25.055 0 0 1 1.342 8.112c0 13.857-11.235 25.09-25.092 25.09H977.938a110.138 110.138 0 0 0 3.598-18.302 109.52 109.52 0 0 0-1.132-31.879h412.63l-47.034-179z"/><path class="fil0" d="M1198.96 1104.18c5.902-11.805 1.117-26.161-10.688-32.063-11.805-5.902-26.161-1.118-32.063 10.687-10.445 20.791-28.649 38.205-51.528 50.573-23.659 12.789-52.173 20.043-82.36 20.043-28.917 0-56.289-6.606-79.285-18.368-22.324-11.42-40.541-27.668-51.902-47.337-6.627-11.442-21.277-15.346-32.72-8.718-11.442 6.627-15.345 21.276-8.718 32.718 16.002 27.704 41.115 50.31 71.589 65.899 29.805 15.246 64.706 23.806 101.036 23.806 38.141 0 74.525-9.358 105.046-25.857 31.298-16.918 56.567-41.472 71.593-71.383zM555.7 1602.18h936.663c13.254 0 24 10.746 24 24 0 6.16-2.322 11.778-6.138 16.028l-99.098 132.134-19.126-14.344 19.2 14.4c-4.74 6.32-11.997 9.636-19.335 9.6H655.997c-8.616 0-16.169-4.542-20.403-11.36l-99.084-132.114-.074.057c-7.953-10.603-5.803-25.648 4.8-33.6a23.899 23.899 0 0 1 14.463-4.8zm888.78 48H603.519l64.362 85.818h712.237l64.362-85.818z"/><path class="fil0" d="M354.963 1602.19c-13.254 0-24 10.746-24 24s10.746 24 24 24h1338.07c13.254 0 24-10.746 24-24s-10.746-24-24-24H354.963z"/></g><path style="fill:none" d="M0 0h2048v2048H0z"/></svg>