<svg viewBox="0 0 64 64" xmlns="http://www.w3.org/2000/svg" xml:space="preserve" style="fill-rule:evenodd;clip-rule:evenodd;stroke-linecap:round;stroke-linejoin:round;stroke-miterlimit:2"><path style="fill:none" d="M0 0h64v64H0z"/><path d="M54.448 33a1.335 1.335 0 0 1 1.322 1.534l-.726 4.839A16 16 0 0 1 39.221 53H24.779A16 16 0 0 1 8.956 39.373l-.726-4.839A1.335 1.335 0 0 1 9.552 33h44.896z" style="fill:none;stroke:#767676;stroke-width:2px"/><path d="M47.5 45.284a15.105 15.105 0 0 1-9.6 3.432M43 52.503V57H21v-4.497M12.3 33a10.161 10.161 0 0 1 3.085-2.524 5.391 5.391 0 0 1 5.667-6.547 6.986 6.986 0 0 1 5.941-2.013c1.295-6.811 8.282-6.624 11.959-3.805 4.507.19 4.917 2.734 4.917 2.734a5.003 5.003 0 0 1 3.88 6.49c.505.472.961.994 1.362 1.558A5.01 5.01 0 0 1 52.941 33M26.5 28.5l-1-.5M42.5 29l.5-.5" style="fill:none;stroke:#767676;stroke-width:2px"/></svg>